<?xml version="1.0" encoding="utf-8"?>
<!-- Generator: Adobe Illustrator 24.0.0, SVG Export Plug-In . SVG Version: 6.00 Build 0)  -->
<svg version="1.1" id="Layer_1" xmlns="http://www.w3.org/2000/svg" xmlns:xlink="http://www.w3.org/1999/xlink" x="0px" y="0px"
	 viewBox="0 0 428.2 386.1" style="enable-background:new 0 0 428.2 386.1;" xml:space="preserve">
<style type="text/css">
	.st0{fill:#FED000;}
	.st1{fill:#2774AD;}
	.st2{fill:#FFFFFF;}
	.st3{fill:#FEFEFE;}
</style>
<title>Untitled-2</title>
<path class="st0" d="M214.1,0c49,0,98,0,147,0c14.7-0.1,29,4.4,41,12.9c14.8,10.3,22.2,24.9,25,42.3c0.7,4.4,1,8.8,1,13.3
	c0.1,63,0.1,126,0,189c0,14.4-4.6,27.3-13.5,39c-11.3,15-26.3,22.9-44.6,24.4c-9.5,0.7-19.1,0.7-28.6,0c-8.8-0.5-14.2-6.5-17-14.4
	c-3-8.2-0.9-15.8,5-21.9c4.1-4.4,9.9-6.9,16-6.8c8.5,0.1,17.1-0.6,25.5-2c7.2-1.3,13.2-10,13.2-17.3c0-65,0-130,0-195
	c0-8.9-9.8-19.5-21.1-19.6c-2.5,0-5,0-7.5,0c-96.2,0-192.4,0-288.6-0.1c-9,0-20.7,7.6-22.2,15.9c-0.4,1.9-0.6,3.8-0.7,5.8
	c0,63.5,0.2,127-0.3,190.5c-0.1,11.1,11.2,22.1,21.7,22c5.5,0,11,0.3,16.5-0.1c17-1,27.8,17.3,20.4,31.8c-4.5,8.8-11.7,11.4-19.6,12
	c-14.1,1-28.3,0.9-41.9-4.6C18.3,307.9,5,291.3,1.1,267.2c-0.8-5.6-1.1-11.2-1-16.8C0,187.8-0.1,125.1,0.2,62.4
	c0.1-13.5,5.2-25.5,13.1-36.6C23.1,12.1,36.9,5.5,52.4,1.4c4.3-1,8.8-1.5,13.2-1.4C115.1,0,164.6,0,214.1,0z"/>
<path class="st1" d="M213.9,386.1c-26.5,0-53,0.3-79.5-0.2c-6.2-0.2-12.2-1.6-17.8-4.3c-5.3-2.6-7.1-8.7-8.6-14.5
	c-2.5-9.7,3-16.7,7.8-23.9c13.6-20.5,27.5-40.8,41.2-61.3c13-19.5,25.5-39.3,38.8-58.6c7.1-10.4,21-12,31.4-5.2
	c5.9,3.9,8.2,10.3,11.8,15.6c15.3,22.3,30.2,44.9,45.1,67.4c11.4,17.2,23,34.3,33.8,51.8c9.2,14.9-1.4,32.9-20.1,33.1
	C269.9,386.3,241.9,386.1,213.9,386.1z M214.1,275.7c-15.4,22.9-29.7,44.2-44.4,66h89C243.6,319.5,229.1,297.9,214.1,275.7z"/>
<path class="st2" d="M203.2,92.2c-2.8,3.8-5,6.9-7.3,10c-4.8,6.5-7,7.1-13.6,2.6s-14-5.9-21.9-5.2c-11.4,1-19.8,6.7-24.5,17
	c-5.9,12.4-5.8,26.8,0.5,39c8.1,16.5,29.5,21.4,44.4,10.4c6.7-4.9,7.5-4.8,13.2,1.4l7.5,8.1c-7.2,9.3-17.7,15.4-29.4,16.8
	c-14.5,2.1-28.6,1.3-41.5-6.5c-14.9-9-22.7-22.7-25-39.5c-3-22.3,1.9-42.1,20.3-56.8c17.7-14.2,46.7-16.4,66.4-5.2
	C196,86.5,199.3,89.4,203.2,92.2z"/>
<path class="st2" d="M323.3,92.3c-3,4.1-5.5,7.5-8,10.8c-4.1,5.4-6.5,6-12.1,2.2c-6-4-13.1-6-20.3-5.8c-12.9,0.4-22.3,6.4-27.4,18.1
	c-5.4,12-5.1,25.9,0.8,37.7c8.1,16.8,29.6,21.8,44.7,10.7c6.5-4.8,7.5-4.7,12.8,1.1c2.5,2.7,5,5.4,8.5,9.1
	c-5.5,4.1-10.3,8.9-16.1,11.6c-15.9,7.6-34.3,7.8-50.3,0.6c-18.2-7.9-27.6-23-30.3-42.2c-3.1-22.3,2-42.1,20.3-56.8
	c17.7-14.2,46.8-16.3,66.4-5.1C316.1,86.6,319.4,89.5,323.3,92.3z"/>
<path class="st3" d="M214.1,275.7c15,22.2,29.6,43.8,44.5,66h-89C184.3,319.9,198.6,298.7,214.1,275.7z"/>
<path class="st1" d="M177.5,324.5c0.8,0,1.5-0.7,1.5-1.5s-0.7-1.5-1.5-1.5s-1.5,0.7-1.5,1.5S176.7,324.5,177.5,324.5z"/>
<path class="st1" d="M246.6,345.7c13.7,1.1,27.4,3,40.9,5.9v-2.9l-42.4,7.3c-1.9,0.3-1.1,3.2,0.8,2.9l42.4-7.3
	c1.5-0.3,1.4-2.6,0-2.9c-13.8-2.9-27.7-4.9-41.7-6C244.7,342.5,244.7,345.5,246.6,345.7L246.6,345.7z"/>
<path class="st1" d="M261.2,334.2l-59.9-11.1l-17.2-3.2l-0.8,2.9l69.5,9.8l19.7,2.8l0.4-3l-74.8-2.6l-21.1-0.7c-2-0.1-1.9,2.8,0,3
	l63,6.5l-0.4-3c-9.1,1.8-18.5,0.8-27.6-0.1l-28.5-3l-16.3-1.8v3c26.4,2.7,52.8,5.9,79.1,9.8c7.5,1.1,15,2.3,22.5,3.5v-2.9
	c-10.4,2.9-21.3,2.1-31.9,0.9c-11.2-1.3-22.4-2.8-33.5-4.6c-6.3-1-12.5-2-18.8-3.1l-0.4,2.9c22.3-1.2,44.7-0.1,66.8,3.2
	c6.2,0.9,12.4,2.1,18.6,3.3l0.4-3c-27.2-0.5-54.2-5-80.8-10.4c-7.5-1.5-15-3.1-22.5-4.7l-0.4,3c27.4,1.2,54.8,3.8,82,7.7
	c7.6,1.1,15.3,2.3,22.9,3.6l-0.7-2.5c-2,2-4.7,2.7-7.5,3.1c-3.2,0.4-6.4,0.4-9.6,0.5c-7.1,0.3-14.3,0.4-21.4,0.4
	c-14.1-0.1-28.2-0.8-42.3-2.1c-8-0.7-16.1-1.7-24.1-2.9l-0.4,2.9c27.7-0.8,55.4,0.4,82.9,3.4c7.8,0.8,15.5,1.8,23.3,3v-2.9
	c-7,2.9-14.5,3.5-22,3.6s-15.2-0.2-22.8-0.4c-15.1-0.5-30.2-1.5-45-4.6c-8.3-1.7-16.5-4.2-24.3-7.3l1,1.8c0.4-2.3,3.2-2.8,5.2-3.1
	c3.5-0.5,7.1-0.9,10.7-1.3c7.2-0.8,14.4-1.5,21.6-2c14.3-1,28.7-1.4,43.1-1.2c4,0.1,8,0.2,12.1,0.3c2.4,0.1,5.8,0.2,7,2.8l0.9-2.2
	c-19.6,3-39.6,3.5-59.3,1.4c-5.6-0.6-11.2-1.4-16.8-2.4l0.4,2.8c4.4-2.8,9.6-3.8,14.7-4.3c5.8-0.6,11.6-0.8,17.4-1
	c12.1-0.5,24.2-0.6,36.3-0.3c6.8,0.2,13.6,0.5,20.3,0.9l-1.3-2.3c-1.4,1.9-4,2.4-6.2,2.7c-3,0.4-6.2,0.5-9.2,0.7
	c-6.5,0.4-13,0.6-19.5,0.6c-13,0-26-0.7-38.9-2.2c-7.3-0.8-14.6-1.9-21.8-3.2v2.9c22.2-4.3,44.9-5.8,67.5-4.6
	c6.4,0.4,12.9,1,19.3,1.8l-1.5-1.5c0,4.7-6.8,5.9-10.3,6.5c-6.8,1.2-13.7,2.1-20.6,2.8c-13.6,1.3-27.2,1.6-40.8,1
	c-7.8-0.4-15.5-1-23.3-2l0.4,2.9c23.4-6.2,47.6-8.8,71.7-7.7c6.8,0.3,13.6,0.9,20.4,1.9l-1.3-0.8c0.8,1.7-0.9,3.4-2.2,4.3
	c-1.9,1.2-3.9,2.1-6.1,2.7c-20.8,6.9-43,8.3-64.5,4l0.4,2.7c14.5-8.5,31.5-10.8,48.1-10.7c4.8,0,9.6,0.2,14.3,0.5l-0.4-3
	c-20.5,4.7-41.5,7.5-62.5,8.3c-6,0.2-12,0.3-18,0.3l0.4,2.9c20.5-3.5,41.2-5.9,62-7c5.9-0.3,11.8-0.4,17.7-0.4l-1.3-2.3
	c-0.9,2-2.8,3-4.8,3.7c-2.6,0.8-5.2,1.4-7.9,1.9c-6,1.3-12,2.3-18.1,3.1c-11.9,1.6-24,2.2-36,2c-6.9-0.1-13.8-0.6-20.6-1.3l0.4,3
	c17.7-6.1,36.1-9.6,54.8-10.4c5.3-0.2,10.5-0.3,15.8-0.1l-0.4-2.9c-15.8,4.4-32.4,5.6-48.7,3.5c-4.7-0.6-9.3-1.5-13.8-2.7v2.8
	c18.2-5.5,36.9-8.9,55.9-10c5.3-0.3,10.7-0.5,16-0.5l-0.4-3c-17.3,3.6-34.9,5.5-52.5,5.7c-5,0.1-10,0-15-0.2l0.4,2.9
	c16.6-4.7,33.8-7.2,51.1-7.2c4.9,0,9.8,0.2,14.7,0.6l-0.4-3c-16.8,4.1-34.1,6.3-51.4,6.6c-5,0.1-9.9,0-14.9-0.3l0.4,3
	c17.6-5.1,35.7-7.9,54-8.2c5.2-0.1,10.4,0,15.5,0.3l-1.5-1.1c0.5,1.4-9.9,3.4-11.2,3.7c-4.5,1-9.1,1.9-13.8,2.6
	c-9.2,1.3-18.5,2-27.8,1.9c-5.3,0-10.6-0.3-15.9-0.9l0.4,2.9c21.3-4.3,43-7,64.7-8.1c6.2-0.3,12.4-0.5,18.6-0.5l-0.4-2.9
	c-24.2,5.2-49.1,6.5-73.8,4.1c-7-0.7-14-1.7-20.9-3l0.9,2.2c1.7-3.9,5.7-5.5,9.6-6.5c5.3-1.2,10.6-2.2,15.9-2.8
	c11.7-1.7,23.5-2.9,35.3-3.4c6.7-0.3,13.3-0.4,20-0.3l-0.4-2.9c-16.4,2.5-32.9,3.8-49.4,3.9c-4.7,0-9.5,0-14.2-0.2l0.4,3
	c16.4-5.7,33.8-8.2,51.2-7.3c3.1,0.1,8.7-0.2,10.3,3.2l0.9-2.2c-17.7,4.3-35.8,6.9-54,7.7c-5.1,0.2-10.3,0.3-15.5,0.2l0.4,3
	c15.8-3.5,32.1-5,48.3-4.5c4.7,0.1,9.3,0.4,13.9,0.9l-0.4-3c-15.8,5.4-32.7,6.7-49.1,3.8v2.9c15.5-3.8,31.5-5.4,47.4-4.8l-0.4-2.9
	c-19,4.5-38.5,6.3-58,5.1l0.4,2.9c19.6-3,39.4-4.1,59.1-3.4c5.5,0.2,11.1,0.6,16.6,1.1l-0.4-3c-15,5.6-31.1,8.1-47.1,7.2
	c-4.5-0.2-9-0.7-13.5-1.5v2.9c15.7-3.7,31.9-5.2,48-4.4c4.6,0.2,9.2,0.6,13.8,1.2l-0.4-3c-15.8,3.7-32.2,5-48.4,3.9
	c-4.6-0.3-9.2-0.8-13.8-1.6v2.9c18.6-4.1,37.7-5.7,56.7-4.6v-3c-16.6,1.7-33.3,1.8-49.8,0.3l0.4,2.9c19.8-4.2,40.1-6,60.3-5.3v-3
	c-19.1,0.9-38.2-0.1-57-3.1v2.9c15.7-3.3,31.8-4.5,47.8-3.6v-3c-20.2,2.2-40.4,3.8-60.7,4.7v3c17.5-1.5,35-2.2,52.6-2.2
	c5,0,10,0.1,15.1,0.2l-0.4-3c-16.6,2.3-33.5,1.9-50-1.3v2.9c12.4-2.4,25.1-3.6,37.8-3.6l-0.4-3c-19.4,2.6-38.9,3.1-58.4,1.5l0.4,3
	c16.7-4,33.8-5.4,50.9-4.3l-0.4-2.9c-16,3.8-32.8,3.6-48.7-0.5v2.9c15.3-4.6,31.3-6.2,47.2-4.9c4.6,0.4,9.1,1,13.7,1.9v-2.9
	c-18.5,3-37.3,4.3-56,4c-5.3-0.1-10.6-0.4-15.9-0.7l1.3,2.3c1.9-2.7,5.9-2.9,8.9-3.1c4.4-0.4,8.9-0.6,13.3-0.9
	c9-0.4,17.9-0.5,26.9-0.3c5.1,0.1,10.2,0.4,15.3,0.7l-0.4-3c-18.3,3.5-37.2,3.8-55.6,1v2.9c16.7-2.3,33.6-2.6,50.4-1l-0.4-3
	c-14.8,2.5-29.8,2.7-44.6,0.6l-0.4,2.9l48.1-2.2l-0.4-3c-13.5,2-27.2,1.3-40.4-2.1v2.9c9.3-3.3,19.2-4.4,29-3.3l-0.4-2.9
	c-10.7,2.4-21.8,3.2-32.8,2.4l0.4,3c14.8-3.9,30.1-5.6,45.4-5.1l-0.4-2.9c-16.3,2.8-32.9,3.6-49.5,2.5v3c18.4-1.5,36.9-1.3,55.3,0.5
	l-0.4-3c-13.9,3.2-28.2,4.2-42.4,2.9l0.4,3c12.2-3.1,24.9-4.1,37.4-2.8v-3c-14.6,0.6-29.3-0.5-43.7-3.3v2.9
	c9.9-3.5,20.3-5.7,30.8-6.8c1.9-0.2,2-3.1,0-3l-25.5,1.3v3c16.5-1.6,33.1-1.7,49.6-0.3l-0.8-2.8c-9.6,4.3-19.9,6.3-30.4,5.9l0.4,3
	c7.9-1.2,15.8-1.7,23.8-1.4v-3c-13,1.6-26.2,1.9-39.3,1v3c13.8-1.3,27.6-2,41.4-2.2l-0.4-3c-11.1,2.2-22.4,2.7-33.7,1.4l0.4,2.9
	c7.2-2.1,14.5-3.3,22-3.6c0.8,0,1.5-0.7,1.5-1.5s-0.7-1.5-1.5-1.5c-5.9-0.6-11.8-0.1-17.4,1.5c-0.8,0.2-1.3,1.1-1,1.9
	c0.2,0.6,0.8,1.1,1.4,1.1c5.8,0.1,11.2,3.2,14.2,8.2l0.9-2.2c-16.1,5.7-32.6,10.1-49.5,13.1c-1.9,0.3-1.1,3.2,0.8,2.9
	c13.8-2.3,27.9-2.8,41.8-1.4l-0.4-3c-13.5,3-27.4,4-41.2,3v3c13.6-1.4,27.7-2.8,40.9,1.5v-2.9c-12.9,3.6-26.2,5.5-39.5,5.7v3
	c16.5-2.2,33.1-3.2,49.8-3.1l-0.4-2.9l-26.6,3.9c-1.5,0.2-1.4,2.6,0,2.9l39.4,6.8v-2.9c-6.2,1.9-12.6,2.8-19.1,2.8l0.4,2.9
	c12.1-1.6,24.3-1.2,36.2,1.3v-2.9c-15,3.9-30.4,6.1-45.9,6.5c-0.8,0-1.5,0.7-1.5,1.5s0.7,1.5,1.5,1.5l41,1v-3
	c-13.9,1.3-27.9,1.4-41.9,0.2l0.4,2.9c12.2-3.8,25.1-4.9,37.8-3v-2.9l-20.7,8.3c-0.8,0.2-1.3,1.1-1,1.9c0.2,0.6,0.8,1.1,1.4,1.1
	c10.7,1.1,21.6,1.4,32.3,1v-3c-11.5,1.1-23,1.2-34.5,0.4l0.4,3c7.7-1.9,15.8-1.8,23.5,0.1V335c-9.2,3.5-18.8,5.6-28.7,6.3
	c-0.8,0-1.5,0.7-1.5,1.5s0.7,1.5,1.5,1.5c9.5,0.8,19.1,0.8,28.6,0c1.9-0.2,2-3,0-3c-8.4,0-16.8-0.5-25.2-1.4v3
	c7.9-1,15.8-1.4,23.8-1.2v-3l-8.1,0.9c-1.9,0.2-2,3,0,3l21.8,0.2v-3c-7,0.4-14,0.2-21-0.5l0.4,3l22.7-3.5c1.8-0.3,1.2-2.8-0.4-3
	l-24.7-1.7v3l22.8-2.1c0.8,0,1.5-0.7,1.5-1.5s-0.7-1.5-1.5-1.5c-8.6-0.7-17.1-1.8-25.6-3.3c-4.2-0.7-8.4-1.5-12.7-2.4
	c-3.7-0.6-7.3-1.5-10.8-2.7c-2.6-1-5.8-2.8-5.8-6l-0.4,1.1c3.9-3.9,8.7-6.8,13.8-8.6c1.2-0.4,1.6-2.7,0-2.9l-19.2-2.8v2.9
	c9.1-1.4,18.4-1.2,27.3,0.7v-2.9c-11.4,1.8-22.9,2.8-34.4,3c-0.8,0-1.5,0.7-1.5,1.5s0.7,1.5,1.5,1.5l34,1.6v-3l-29.2,2
	c-0.8,0-1.5,0.7-1.5,1.5s0.7,1.5,1.5,1.5l24.2,1.2l-0.4-2.9l-12.3,1.7c-1.8,0.2-1.2,2.8,0.4,2.9c4.2,0.3,8.4,1,12.5,2.1l0.4-3
	l-11.5,1.2l0.4,3l4.7-1c1.9-0.4,1.1-3.3-0.8-2.9l-4.7,1c-1.6,0.3-1.3,3.1,0.4,3l11.5-1.2c1.6-0.2,2.2-2.5,0.4-3
	c-4.4-1.1-8.8-1.9-13.3-2.2l0.4,3l12.3-1.7c1.7-0.2,1.2-2.9-0.4-3l-24.3-1.3v3l29.2-2c0.8,0,1.5-0.7,1.5-1.5s-0.7-1.5-1.5-1.5
	l-34-1.6v3c11.8-0.2,23.6-1.2,35.3-3.1c1.5-0.2,1.4-2.6,0-2.9c-9.5-2-19.4-2.3-29-0.7c-1.4,0.2-1.4,2.7,0,2.9l19.2,2.8v-2.9
	c-5,1.7-9.6,4.4-13.6,7.9c-0.9,0.8-2,1.5-2,2.8c0,1,0.3,2.1,0.8,3c1,1.8,2.4,3.2,4.2,4.1c4.3,2.5,9.6,3.2,14.4,4.2
	c5.9,1.2,11.9,2.3,17.9,3.2c6.9,1,13.7,1.9,20.7,2.5v-3l-22.8,2.1c-0.8,0-1.5,0.7-1.5,1.5s0.7,1.5,1.5,1.5l24.7,1.7l-0.4-2.9
	l-22.7,3.5c-1.8,0.3-1.1,2.8,0.4,2.9c7,0.8,14,1,21,0.5c0.8,0,1.5-0.7,1.5-1.5s-0.7-1.5-1.5-1.5l-21.8-0.2v3l8.1-0.9
	c0.8,0,1.5-0.7,1.5-1.5s-0.7-1.5-1.5-1.5c-7.9-0.3-15.9,0.1-23.8,1.2c-0.8,0-1.5,0.7-1.5,1.5s0.7,1.5,1.5,1.5
	c8.4,0.9,16.8,1.3,25.2,1.4v-3c-9.5,0.8-19.1,0.8-28.6,0v3c10.1-0.7,20-2.8,29.4-6.4c0.8-0.2,1.2-1.1,1-1.9c-0.1-0.5-0.5-0.9-1-1
	c-8.2-2.1-16.8-2.1-25.1-0.1c-1.7,0.4-1.2,2.8,0.4,2.9c11.5,0.9,23.1,0.8,34.6-0.3c1.9-0.2,2-3.1,0-3c-10.8,0.4-21.6,0.1-32.3-1
	l0.4,3l20.8-8.3c1.2-0.5,1.7-2.6,0-2.9c-13.2-2-26.6-1-39.3,3c-0.8,0.1-1.4,0.9-1.3,1.7s0.9,1.4,1.7,1.3c13.9,1.2,27.9,1.1,41.9-0.2
	c0.8,0,1.5-0.7,1.5-1.5s-0.7-1.5-1.5-1.5l-41-1v3c15.8-0.4,31.4-2.7,46.7-6.7c0.8-0.2,1.2-1.1,1-1.9c-0.1-0.5-0.5-0.9-1-1
	c-12.4-2.6-25.2-3.1-37.8-1.3c-1.7,0.2-1.2,2.9,0.4,3c6.7,0.1,13.5-0.9,19.9-2.9c1.3-0.4,1.5-2.6,0-2.9l-39.4-6.9v2.9l26.6-3.9
	c1.7-0.3,1.2-2.9-0.4-3c-16.6-0.2-33.3,0.8-49.8,3c-1.8,0.3-2,3,0,3c13.7-0.2,27.2-2.1,40.4-5.7c0.8-0.2,1.2-1.1,1-1.9
	c-0.1-0.5-0.5-0.9-1-1c-13.5-4.4-27.9-3-41.7-1.6c-0.8,0-1.5,0.7-1.5,1.5s0.7,1.5,1.5,1.5c14.1,1,28.2-0.1,42-3.1
	c1.8-0.4,1.2-2.8-0.4-3c-14.2-1.3-28.5-0.8-42.6,1.5l0.8,2.9c16.8-3,33.4-7.4,49.5-13.1c0.8-0.2,1.3-1.1,1-1.9
	c0-0.1-0.1-0.2-0.1-0.3c-3.5-5.9-9.9-9.6-16.8-9.7l0.4,3c5.4-1.5,11-2,16.6-1.4v-3c-7.7,0.3-15.4,1.6-22.8,3.7
	c-0.8,0.1-1.4,0.9-1.3,1.7s0.9,1.4,1.7,1.3l0,0c11.5,1.3,23.1,0.8,34.5-1.5c1.7-0.3,1.3-3-0.4-2.9c-13.8,0.2-27.6,0.9-41.4,2.2
	c-0.8,0-1.5,0.7-1.5,1.5s0.7,1.5,1.5,1.5c13.1,0.9,26.3,0.6,39.3-1c0.8,0,1.5-0.7,1.5-1.5s-0.7-1.5-1.5-1.5
	c-8.2-0.3-16.4,0.2-24.6,1.5c-1.7,0.3-1.2,2.9,0.4,2.9c11,0.4,21.9-1.8,31.9-6.3c1.5-0.7,0.6-2.7-0.8-2.8
	c-16.5-1.4-33.1-1.3-49.6,0.3c-1.9,0.2-2,3.1,0,3l25.5-1.3v-3c-10.7,1-21.3,3.3-31.5,6.8c-1.3,0.5-1.6,2.6,0,2.9
	c14.6,2.9,29.6,4,44.5,3.5c0.8,0,1.5-0.7,1.5-1.5s-0.7-1.5-1.5-1.5c-12.8-1.3-25.7-0.3-38.2,2.9c-1.7,0.4-1.2,2.8,0.4,2.9
	c14.5,1.2,29,0.2,43.2-3c1.8-0.4,1.2-2.8-0.4-3c-18.4-1.8-36.9-2-55.3-0.5c-0.8,0-1.5,0.7-1.5,1.5s0.7,1.5,1.5,1.5
	c16.8,1.1,33.7,0.2,50.3-2.6c1.7-0.3,1.2-2.9-0.4-3c-15.6-0.5-31.1,1.3-46.2,5.2c-1.7,0.5-1.2,2.8,0.4,3c11.2,0.8,22.5-0.1,33.5-2.5
	c1.8-0.4,1.2-2.8-0.4-3c-10.1-1.1-20.3,0-29.8,3.4c-0.8,0.2-1.2,1.1-1,1.9c0.1,0.5,0.5,0.9,1,1c13.7,3.5,28,4.2,41.9,2.1
	c1.7-0.3,1.3-3-0.4-2.9l-48.1,2.1c-1.6,0.1-2.2,2.7-0.4,3c15.3,2.1,30.9,1.9,46.2-0.6c1.8-0.3,1.2-2.8-0.4-3
	c-17.1-1.6-34.2-1.3-51.2,1.1c-1.4,0.2-1.4,2.7,0,2.9c19,2.9,38.3,2.6,57.2-1c1.7-0.3,1.2-2.8-0.4-2.9c-18.9-1.3-37.8-1.1-56.6,0.6
	c-3.9,0.4-7.9,1.1-10.4,4.5c-0.7,1,0.3,2.2,1.3,2.3c18.9,1.3,38,0.9,56.8-1.1c5.3-0.6,10.7-1.3,16-2.2c1.5-0.2,1.4-2.6,0-2.9
	c-16.2-3.1-32.7-3.2-48.9-0.2c-4.6,0.8-9.1,1.9-13.6,3.3c-0.8,0.2-1.2,1.1-1,1.9c0.1,0.5,0.5,0.9,1,1c16.5,4.2,33.8,4.4,50.3,0.5
	c1.7-0.4,1.2-2.8-0.4-3c-17.3-1.2-34.8,0.3-51.7,4.4c-1.7,0.4-1.2,2.8,0.4,3c19.7,1.6,39.6,1.1,59.2-1.6c1.7-0.2,1.3-2.9-0.4-2.9
	c-12.9,0-25.9,1.2-38.5,3.7c-0.8,0.2-1.2,1.1-1,1.9c0.1,0.5,0.5,0.9,1,1c17,3.3,34.4,3.7,51.6,1.3c1.7-0.2,1.2-2.9-0.4-2.9
	c-17.6-0.4-35.1-0.1-52.7,0.9c-5,0.3-10,0.7-15,1.1c-1.9,0.2-2,3.1,0,3c20.3-0.9,40.5-2.5,60.7-4.7c0.8,0,1.5-0.7,1.5-1.5
	s-0.7-1.5-1.5-1.5c-16.3-0.9-32.7,0.3-48.6,3.7c-1.4,0.3-1.5,2.6,0,2.9c19.1,3.1,38.4,4.1,57.7,3.2c0.8,0,1.5-0.7,1.5-1.5
	s-0.7-1.5-1.5-1.5c-20.5-0.7-41,1.2-61.1,5.5c-1.8,0.4-1.2,2.8,0.4,3c16.6,1.5,33.3,1.3,49.8-0.5c0.8,0,1.5-0.7,1.5-1.5
	s-0.7-1.5-1.5-1.5c-19.3-1.1-38.6,0.4-57.5,4.6c-1.4,0.3-1.5,2.7,0,2.9c16.5,2.6,33.2,2.7,49.7,0.4c4.7-0.7,9.4-1.6,14.1-2.6
	c1.8-0.4,1.2-2.8-0.4-3c-16.2-2.1-32.6-1.8-48.8,0.6c-4.7,0.7-9.3,1.6-13.8,2.7c-1.4,0.3-1.5,2.6,0,2.9c16.2,2.8,32.8,2.3,48.8-1.6
	c4.5-1.1,9-2.5,13.4-4.1c0.8-0.2,1.3-1.1,1-1.9c-0.2-0.6-0.8-1.1-1.4-1.1c-19.8-1.8-39.8-1.7-59.6,0.3c-5.7,0.6-11.3,1.3-16.9,2.1
	c-1.8,0.3-1.2,2.9,0.4,3c19.8,1.2,39.6-0.6,58.8-5.2c1.7-0.4,1.3-2.9-0.4-3c-16.2-0.6-32.5,1.1-48.2,5c-1.4,0.3-1.5,2.6,0,2.9
	c17,3.1,34.4,1.7,50.7-3.9c0.8-0.2,1.3-1.1,1-1.9c-0.2-0.6-0.8-1.1-1.4-1.1c-16.3-1.6-32.8-1.2-49,1.2c-4.7,0.7-9.3,1.5-13.9,2.5
	c-1.7,0.4-1.3,2.9,0.4,2.9c18.4,0.2,36.8-1.4,54.9-4.7c5.1-1,10.3-2.1,15.3-3.3c0.8-0.2,1.3-1.1,1-1.9c0-0.1-0.1-0.2-0.1-0.3
	c-1.6-3.2-5.3-4.1-8.6-4.4c-4.5-0.4-9.1-0.5-13.6-0.4c-9.2,0.2-18.4,1.3-27.4,3.3c-5.2,1.1-10.2,2.6-15.2,4.3
	c-0.8,0.2-1.2,1.1-1,1.9c0.2,0.6,0.7,1,1.4,1.1c16.8,0.6,33.5-0.1,50.2-1.9c4.8-0.5,9.5-1.2,14.3-1.9c1.7-0.3,1.2-2.9-0.4-3
	c-12.4-0.2-24.7,0.3-37,1.5c-6,0.6-12.1,1.3-18.1,2.2c-5.6,0.8-11.3,1.6-16.7,3c-4.6,1.1-9.5,3.3-11.5,7.9c-0.4,0.7-0.2,1.7,0.6,2.1
	c0.1,0.1,0.2,0.1,0.3,0.1c24.7,4.7,50.1,5.6,75.1,2.5c7.1-0.9,14.1-2.1,21.1-3.6c1.7-0.4,1.3-3-0.4-3c-22,0.2-44,2-65.8,5.4
	c-6.1,1-12.3,2.1-18.3,3.3c-1.8,0.4-1.2,2.8,0.4,3c20.3,2,40.7,0.6,60.5-4.2c2.7-0.5,5.3-1.3,7.9-2.2c1.9-0.8,3.8-2.5,3-4.7
	c-0.2-0.6-0.8-1.1-1.5-1.1c-18.4-1-36.9,0.4-55,4.2c-5.1,1.1-10.2,2.4-15.3,3.8c-0.8,0.2-1.3,1.1-1,1.9c0.2,0.6,0.8,1.1,1.4,1.1
	c17.6,0.9,35.2-0.2,52.5-3.3c4.9-0.9,9.7-1.9,14.6-3.1c1.7-0.4,1.2-2.8-0.4-2.9c-17.4-1.4-34.9-0.3-52.1,3.1
	c-4.9,1-9.7,2.2-14.5,3.5c-0.8,0.1-1.4,0.9-1.3,1.7s0.9,1.4,1.7,1.3c17.8,0.7,35.7-0.3,53.3-2.9c5-0.8,10-1.6,15-2.7
	c1.7-0.4,1.3-3-0.4-3c-19.2,0-38.3,2.1-57,6.5c-5.3,1.2-10.5,2.6-15.8,4.2c-0.8,0.2-1.2,1.1-1,1.9c0.1,0.5,0.5,0.9,1,1
	c21.1,5.3,43.2,5.1,64.1-0.8c0.8-0.2,1.2-1.1,1-1.9c-0.2-0.6-0.7-1-1.4-1.1c-18.9-0.7-37.7,1.4-56,6c-5.2,1.3-10.3,2.9-15.4,4.6
	c-0.8,0.2-1.3,1.1-1,1.9c0.2,0.6,0.8,1.1,1.4,1.1c25.1,2.6,50.5,1.4,75.3-3.8c4.9-1,12.3-1.8,14.7-7c0.4-0.7,0.1-1.7-0.6-2.1
	c-0.2-0.1-0.5-0.2-0.7-0.2c-21,0.1-42,1.7-62.8,4.8c-5.9,0.8-11.8,1.7-17.7,2.7c-1.7,0.3-1.3,2.9,0.4,3c21.3,0.2,42.7-1.5,63.7-5.2
	c5.9-1,11.8-2.2,17.6-3.5c1.7-0.4,1.2-2.8-0.4-3c-17-1.1-34.7-0.9-51,4.7c-4.5,1.5-8.9,3.5-13,5.9c-0.7,0.4-0.9,1.4-0.5,2.1
	c0.2,0.3,0.5,0.6,0.9,0.7c11.6,2.4,23.4,3.1,35.2,2.2c5.8-0.4,11.6-1.3,17.4-2.5c5.8-1.1,11.4-2.8,16.9-4.9c3.6-1.5,8.6-5,6.9-9.5
	c-0.6-1.5-1.8-1.4-3.2-1.6c-1.6-0.2-3.2-0.4-4.7-0.6c-3.1-0.3-6.2-0.6-9.3-0.8c-12.2-0.8-24.4-0.7-36.6,0.4
	c-13.7,1.2-27.4,3.6-40.7,7.1c-1.8,0.5-1.2,2.8,0.4,3c28.8,3.7,58.1,3,86.7-2.1c4.8-0.9,11.3-3.3,11.3-9.2c0-0.8-0.7-1.5-1.5-1.5
	c-22.8-2.9-45.8-2.9-68.6-0.1c-6.4,0.8-12.7,1.8-19,3c-0.8,0.2-1.2,1.1-1,1.9c0.1,0.5,0.5,0.9,1,1c26.9,4.9,54.2,6.5,81.5,4.9
	c3.4-0.2,6.8-0.3,10.2-0.9c2.9-0.5,5.5-1.6,7.3-4c0.7-1-0.3-2.2-1.3-2.3c-12.3-0.7-24.7-1.1-37-1c-12.1,0.1-24.3,0.4-36.3,1.5
	c-5.9,0.5-11.8,1.6-16.9,4.8c-1,0.6-1,2.5,0.4,2.8c20,3.6,40.3,4.6,60.5,3c5.8-0.5,11.5-1.2,17.2-2c1.1-0.2,1.3-1.4,0.9-2.2
	c-1.1-2.5-3.8-3.6-6.3-4c-3.5-0.4-7.1-0.6-10.6-0.5c-7.7-0.2-15.4-0.2-23.2,0c-15.6,0.3-31.2,1.4-46.7,3.2c-4,0.5-8,0.8-11.9,1.6
	c-2.7,0.6-5.8,2-6.3,5c-0.2,0.8,0.2,1.6,1,1.8c14.2,5.8,29.3,8.8,44.5,10.5c15.3,1.5,30.7,2.1,46.2,2c8.5,0,17.1-0.5,25.1-3.7
	c1.2-0.5,1.7-2.6,0-2.9c-27.6-4.1-55.4-6.3-83.3-6.7c-7.9-0.1-15.8,0-23.7,0.2c-1.6,0-2.1,2.7-0.4,3c29.1,4.2,58.5,5.8,87.9,4.7
	c3.7-0.1,7.5-0.2,11.1-0.7c3.3-0.3,6.4-1.6,8.8-3.9c0.6-0.6,0.6-1.6,0-2.1c-0.2-0.2-0.4-0.3-0.6-0.4c-27.3-4.7-54.7-8.1-82.3-10.1
	c-7.8-0.6-15.6-1-23.4-1.4c-1.7-0.1-2.1,2.6-0.4,2.9c26.8,5.7,53.7,11.3,81,13.9c7.7,0.7,15.4,1.2,23.1,1.3c1.7,0,2.1-2.6,0.4-2.9
	c-22.1-4.6-44.5-7-67.1-7.1c-6.4,0-12.8,0.1-19.2,0.4c-1.6,0.1-2.2,2.6-0.4,3c11.4,2,22.8,3.8,34.2,5.3c11,1.5,22.2,3.3,33.3,3.5
	c6.2,0.2,12.4-0.5,18.4-2.1c1.3-0.4,1.5-2.7,0-2.9c-26.5-4.3-53.1-8-79.8-11c-7.5-0.9-15.1-1.7-22.6-2.4c-1.9-0.2-1.9,2.8,0,3
	l29.1,3.1c9.5,1,19,2.4,28.6,2.8c5.2,0.3,10.5-0.1,15.7-1c1.8-0.3,1.2-2.8-0.4-2.9l-63-6.5v3l74.8,2.6l21.1,0.7
	c1.7,0.1,2.1-2.7,0.4-2.9l-69.5-9.8l-19.7-2.9c-1.9-0.3-2.7,2.5-0.8,2.9l59.9,11.2l17.2,3.2C262.2,337.4,263,334.6,261.2,334.2
	L261.2,334.2z"/>
<path class="st1" d="M235.2,316.5c-0.2-2.5-0.6-7.5,2.4-8.5c1-0.3,2.1-0.2,3,0.4c1.1,0.9-0.1,2.1-0.8,2.8
	c-5.3,5.3-12.7,7.9-20.1,7.3l1.4,1.1c-0.8-2,1.9-3.6,3.3-4.4c2.1-1.3,4.2-2.4,6.5-3.3c4.5-1.9,9.2-3.1,14-3.6l-0.4-2.9
	c-15.6,4.2-31.3,7.7-47.2,10.7l0.8,2.9c8.4-1.6,16.8-2.6,25.3-3c4.2-0.2,8.5-0.3,12.7-0.2c2.1,0.1,4.2,0.1,6.3,0.3
	c0.9,0,3.5-0.1,3.9,1l1-1.8c-7.6,3.1-15.9,3.9-24,2.3l0.4,2.7c7.1-3,14.8-4.4,22.5-4.1l-0.4-3c-6.2,2.4-12.8,3.7-19.4,3.9l0.8,2.8
	c4.6-3,10-4.4,15.4-4l-0.4-2.9c-2.4,0.3-4.8,0.1-7-0.8l0.9,2.2c1.4-2.2,3.7-3.8,6.4-4.2c1.5-0.3,1.4-2.6,0-2.9
	c-3.4-0.8-6.9-1.3-10.4-1.3v3l21-1.7c1.9-0.1,1.9-3.2,0-3l-21,1.7c-1.9,0.2-2,3,0,3c3.2,0,6.5,0.4,9.6,1.2v-2.9
	c-3.4,0.6-6.3,2.7-8.2,5.6c-0.4,0.7-0.2,1.6,0.6,2.1c0.1,0.1,0.2,0.1,0.3,0.1c2.7,1,5.7,1.3,8.6,0.8c1.8-0.3,1.2-2.9-0.4-3
	c-6-0.4-11.9,1.2-17,4.4c-0.7,0.4-0.9,1.4-0.5,2.1c0.3,0.4,0.7,0.7,1.3,0.7c6.9-0.2,13.7-1.6,20.1-4c0.8-0.2,1.3-1.1,1-1.9
	c-0.2-0.6-0.8-1.1-1.4-1.1c-8.2-0.3-16.4,1.2-24,4.5c-0.7,0.4-0.9,1.4-0.5,2.1c0.2,0.3,0.5,0.6,0.9,0.7c8.6,1.8,17.5,1,25.6-2.3
	c0.8-0.2,1.3-1.1,1-1.9c-1.2-3.8-6.6-3.2-9.7-3.4c-4.7-0.2-9.4-0.2-14.2,0c-9.4,0.4-18.8,1.4-28,3.1c-1.9,0.4-1.1,3.3,0.8,2.9
	c15.8-3,31.6-6.5,47.2-10.7c1.6-0.4,1.3-3.1-0.4-3c-5.8,0.6-11.4,2.2-16.7,4.6c-3.6,1.6-12.1,5.3-9.9,10.6c0.2,0.6,0.8,1.1,1.5,1.1
	c7.6,0.6,15.2-1.9,21-6.9c2.3-2,5-5.4,2.2-8.1c-2-1.8-5-2.1-7.3-0.8c-3.5,2.2-3.6,7.2-3.3,10.9C232.4,318.5,235.4,318.5,235.2,316.5
	L235.2,316.5z"/>
<path class="st1" d="M187.4,296.9c13.7,1.1,27.4,3,40.9,5.9v-2.9l-42.4,7.3c-1.9,0.3-1.1,3.2,0.8,2.9l42.4-7.3
	c1.5-0.3,1.4-2.6,0-2.9c-13.8-2.9-27.7-4.9-41.7-6C185.5,293.7,185.5,296.7,187.4,296.9L187.4,296.9z"/>
<path class="st1" d="M214.7,307.7c-10.7-0.8-21.5,1.4-31,6.3c-0.7,0.4-0.9,1.4-0.5,2.1c0.2,0.3,0.5,0.5,0.8,0.6
	c10.8,2.2,21.9,3,33,2.5c0.8,0,1.5-0.7,1.5-1.5s-0.7-1.5-1.5-1.5l-24.5-0.7v3c6.1-0.5,12.2-0.3,18.3,0.8v-2.9
	c-6.1,1-12.2,1.3-18.3,0.9v3c15.1,0.4,30.5,0.8,45,5.6V323c-14,2.4-28.2,2.9-42.3,1.4v3c14.4-0.2,29.6-0.5,43,5.6v-2.6
	c-3.9,1.8-8.4,1.7-12.6,1.5c-4.7-0.2-9.4-0.5-14.1-0.9c-9.5-0.8-19-1.8-28.5-3.1l-0.4,3c16.5-0.6,33,1.5,48.8,6.2
	c3.9,1.2,8.1,2.4,11.2,5.2v-2.2c-2.5,3-6.7,3.2-10.3,3.2c-4.9,0.1-9.8,0-14.6-0.3s-9.7-0.7-14.6-1.4c-4-0.5-9.1-0.8-12.3-3.7
	l-0.7,2.5c10.2-2.4,20.7-3.1,31.1-2.1c5.3,0.5,10.4,1.5,15.5,2.9c1.2,0.3,3.8,1.2,3.3,2.9c-0.5,1.5-2.8,2-4.1,2.2
	c-5,0.7-10.1,0.8-15.2,0.3c-5.1-0.4-10.1-1.3-15-2.7c-2.4-0.7-4.8-1.5-7.1-2.3c-1.1-0.4-2.1-0.8-3.1-1.4c-0.2-0.1-0.7-0.4-0.7-0.7
	c0-0.4,1.1-0.8,1.4-0.9c4.1-1.8,8.4-2.9,12.8-3.2c10-0.9,20.1,1.6,28.4,7.2l-0.3-2.4c-4.7,4.9-13.2,3.2-19.1,2.5
	c-12.5-1.6-24.6-5.1-36.1-10.2l-0.4,2.7c15.5-5.6,32.5-5.6,48,0.2c2.1,0.7,4.1,1.6,6,2.7c1.5,0.9,3.3,2.2,3.4,4.1l0.7-1.3
	c-4.7,2.1-10,2.4-15,2.1c-5.1-0.4-10.1-1.2-15-2.5c-9.9-2.4-19.3-6.7-27.6-12.5c-0.9-0.7-0.9-1,0.1-1.6c1.1-0.6,2.3-1,3.5-1.2
	c2.5-0.6,5-1,7.6-1.1c5.5-0.3,11.2-0.2,16.7,0c11.5,0.4,23,1.5,34.3,3.5c7.5,1.3,17,3.3,21,10.5c1.1,1.9,1.5,4,1.3,6.2
	c-0.4,2.2-1.8,4-3.8,4.9c-2.2,1-4.5,1.8-6.9,2.3c-2.7,0.7-5.4,1.2-8.1,1.7c-11,1.9-22.3,2.2-33.4,2.8l-34.7,1.8
	c-20.2,1-41.5,1.1-60.2,9.6c-2.2,1-4.3,2.1-6.4,3.3c-0.7,0.4-0.9,1.4-0.5,2.1c0.4,0.7,1.3,0.9,2,0.5c19-11.3,42-11.4,63.4-12.5
	l37-1.9c11.8-0.6,23.7-1,35.4-3.2c3-0.5,5.9-1.2,8.8-2c2.4-0.5,4.6-1.5,6.6-2.7c4.1-2.9,4.9-8.1,3.1-12.6
	c-3.4-8.5-13-11.7-21.2-13.3c-11.6-2.2-23.3-3.5-35.1-3.9c-6.1-0.3-12.2-0.4-18.3-0.1c-2.8,0.1-5.5,0.4-8.2,1
	c-2.2,0.5-5.1,1.1-6.7,2.8c-1.8,1.9-0.9,4.2,1,5.5c2.2,1.5,4.4,2.9,6.7,4.2c4.7,2.6,9.7,4.9,14.8,6.7c5.1,1.8,10.3,3.1,15.6,3.9
	c5.4,1,10.8,1.2,16.3,0.6c2.6-0.4,5.2-1.1,7.6-2.2c0.5-0.3,0.7-0.8,0.7-1.3c-0.3-4-3.7-6.3-7-7.8c-4.1-1.9-8.4-3.3-12.8-4.4
	c-8.7-2.1-17.7-2.5-26.5-1.3c-5.1,0.7-10,1.9-14.8,3.7c-1.1,0.4-1.6,2.2-0.4,2.7c7.8,3.5,15.9,6.3,24.2,8.2c4.2,1,8.4,1.8,12.7,2.3
	c3.8,0.6,7.7,0.9,11.6,0.8c3.8-0.2,7.6-1.3,10.3-4.1c0.6-0.6,0.6-1.6,0-2.1c-0.1-0.1-0.2-0.1-0.3-0.2c-8.6-5.8-19-8.5-29.3-7.7
	c-5.2,0.3-10.2,1.6-14.9,3.7c-2.1,1-3.8,3.1-2.3,5.3c0.7,0.9,1.5,1.5,2.5,1.9c1.4,0.6,2.9,1.2,4.4,1.7c11,4,22.8,5.5,34.4,4.4
	c3.7-0.3,10.5-1.7,9-7c-0.6-2.1-2.8-3.3-4.7-4c-2.8-0.9-5.6-1.5-8.5-2c-13.4-2.5-27.2-2.2-40.4,1c-0.8,0.2-1.3,1.1-1,1.9
	c0.1,0.2,0.2,0.5,0.4,0.6c2.6,2.4,5.9,3.3,9.3,3.8c4.1,0.7,8.2,1.1,12.3,1.5s8.4,0.7,12.6,0.8c4,0.2,8,0.2,12,0
	c3.6-0.3,7.3-1.2,9.7-4c0.6-0.6,0.6-1.5,0-2.1c-2.8-2.6-6.3-4-9.9-5.1c-4-1.3-8.1-2.4-12.2-3.3c-8.4-1.9-16.8-3.1-25.4-3.6
	c-4.9-0.3-9.8-0.3-14.7-0.2c-1.6,0.1-2.1,2.7-0.4,2.9c9.9,1.3,19.8,2.4,29.8,3.2c4.8,0.4,9.7,0.7,14.5,0.9c4.5,0.2,9.1-0.1,13.2-2
	c0.7-0.4,1-1.3,0.5-2.1c-0.1-0.2-0.3-0.4-0.5-0.5c-14-6.3-29.5-6.2-44.5-6c-0.8,0-1.5,0.7-1.5,1.5s0.7,1.5,1.5,1.5
	c14.4,1.5,28.9,1,43.1-1.5c1.6-0.3,1.3-2.5,0-2.9c-14.7-4.9-30.4-5.3-45.8-5.7c-1.9,0-1.9,2.9,0,3c6.4,0.4,12.8,0.1,19.1-1
	c0.8-0.2,1.2-1.1,1-1.9c-0.1-0.5-0.5-0.9-1-1c-6.3-1.1-12.7-1.4-19-0.9c-0.8,0-1.5,0.7-1.5,1.5s0.7,1.5,1.5,1.5l24.5,0.7v-3
	c-10.8,0.6-21.6-0.2-32.1-2.4l0.4,2.8c9.1-4.7,19.3-6.7,29.4-5.9C216.6,310.9,216.6,307.9,214.7,307.7L214.7,307.7z"/>
</svg>
