<svg id="Layer_1" data-name="Layer 1" xmlns="http://www.w3.org/2000/svg" viewBox="0 0 427.39 385.42"><defs><style>.cls-1{fill:#2774ad;}.cls-2{fill:#fed000;}.cls-3{fill:#030303;}.cls-4{fill:#fefefe;}</style></defs><title>Untitled-3</title><path class="cls-1" d="M683.32,191.69q73.88,0,147.75,0A68.3,68.3,0,0,1,864,199.88c18.38,10,28.88,26.05,32,46.76a97.06,97.06,0,0,1,1,14.25c.07,63.38.21,126.76-.09,190.14-.06,13.42-5.25,25.36-13.17,36.47-9.79,13.73-23.43,21.19-39,23.93a118.63,118.63,0,0,1-36.33.28c-12.59-1.76-19.18-17.63-14.44-29,3-7.22,12.77-14.12,20.61-13.74,8.3.4,16.79,1.43,25-1.54,7.57-2.73,13.51-10.32,13.54-18.21.05-10.65,0-21.3,0-31.94q0-80.1,0-160.2c0-5.59-2-9.84-5.84-14.26-5.14-6-11.35-7.18-18.24-7.19q-146.24-.09-292.49-.14c-9.83,0-20.33,7.64-22.4,16.15a23.07,23.07,0,0,0-.47,5.39c0,63.37.23,126.76-.24,190.13-.09,11.2,11.29,22.29,22,22,5.65-.13,11.36.46,17-.16,6.2-.69,10.84,2.73,15.37,5.46,6,3.62,7.55,16.82,5,24.36-3.48,10.15-11.57,13.48-20.62,14-14.08.85-28.27.84-41.78-4.7-5.6-2.3-10.33-5.86-15.39-9-13.9-8.68-19.49-22.4-23.72-37A41,41,0,0,1,469.73,451c-.08-65.54-.19-131.09.13-196.63A64.28,64.28,0,0,1,474.2,233c3.3-8.95,7.91-17.6,15.53-23.81,10.54-8.57,22.13-15.92,36.08-16.31,30.36-.85,60.75-.92,91.13-1.13C639.07,191.57,661.2,191.69,683.32,191.69Z" transform="translate(-469.64 -191.64)"/><path class="cls-2" d="M683.8,577c-27.6,0-55.21.25-82.81-.21-5.26-.09-11-2.11-15.58-4.75-4.82-2.74-6.58-8.42-7.9-13.79-2-8.18,1.6-14.73,5.94-21.2,12.41-18.44,24.64-37,37-55.48,14.37-21.48,29.15-42.7,43-64.51a25.08,25.08,0,0,1,15.64-11.48c7.2-1.89,13.58,1.44,19.61,5,1.07.63,1.41,2.41,2.2,3.58,13,19.2,26.11,38.34,39.05,57.58,12.65,18.81,25.28,37.65,37.64,56.66A126.53,126.53,0,0,1,789,549.15c3,7.39.9,14.32-4.74,20.42-5.2,5.61-11.56,7.38-18.67,7.4C738.35,577.05,711.08,577,683.8,577Zm43.59-44.24c-1.41-2.21-2.51-4.06-3.72-5.83-5.4-7.85-10.92-15.63-16.24-23.55-7.42-11-14.8-22.12-22-33.32-1.67-2.59-2.54-2.59-4.16-.18-14,20.8-28,41.57-42.37,62.88Z" transform="translate(-469.64 -191.64)"/><path class="cls-3" d="M672.14,284.11c-2.76,3.77-5.26,7.28-7.86,10.71-3.86,5.08-6.27,5.62-11.8,2A33.37,33.37,0,0,0,633.8,291c-15.41,0-26.56,7.77-30.63,22.65-3.94,14.41-3.08,28.53,7.37,40.29,9.76,11,27.61,12.3,39.5,3.6,6.71-4.91,7.49-4.84,13.18,1.28l7.5,8.05a40.29,40.29,0,0,1-19.64,14.36c-14.46,4.79-29.11,5-43.45-.3a47.16,47.16,0,0,1-28-26.84c-7.8-18.7-8-37.61,1.27-55.84,10.49-20.53,33.29-31.5,58.31-29C651.71,270.47,662.74,274.74,672.14,284.11Z" transform="translate(-469.64 -191.64)"/><path class="cls-3" d="M791.78,284.35c-2.51,3.42-5,6.92-7.62,10.35-3.89,5.15-6.4,5.83-11.75,2.2A34.43,34.43,0,0,0,750.26,291c-14.75.9-25.61,10.88-28.44,27.28-2.19,12.65-.85,25,8,35.19,9.8,11.19,27.84,12.85,39.87,4.11,6.94-5,7.51-5,13.53,1.46,2.38,2.54,4.75,5.09,7.24,7.76a40,40,0,0,1-20,14.5c-14.32,4.65-28.8,4.87-43-.35a47,47,0,0,1-27.81-26.32c-8.09-19-8.5-38.18,1.21-56.72,10.68-20.41,33.09-31.19,58-28.73C772.87,270.6,784.47,275.9,791.78,284.35Z" transform="translate(-469.64 -191.64)"/><path class="cls-4" d="M727.39,532.76H638.92c14.36-21.31,28.39-42.08,42.37-62.88,1.62-2.41,2.49-2.41,4.16.18,7.18,11.2,14.56,22.28,22,33.32,5.32,7.92,10.84,15.7,16.24,23.55C724.88,528.7,726,530.55,727.39,532.76Z" transform="translate(-469.64 -191.64)"/><path class="cls-2" d="M698.52,482.72c-2.69-1.81-5.76,0-8.12,1.49l-9.68,6.16-19.16,12.19-38.32,24.38-21.69,13.79,1.51,2.59c20.86-14.93,43.35-27.47,68.12-34.55a190.73,190.73,0,0,1,18.75-4.33c3.21-.57,6.44-1.06,9.68-1.45a20,20,0,0,1,4.08-.37c.49,0,.86.08.95.62a4.79,4.79,0,0,1-.5,2.09c-1.65,4.43-6,7.2-10,9.23a50.66,50.66,0,0,1-6.91,2.94c-2.13.7-5.14,1.44-6.89-.45s-1.26-4.91-.72-7.12a21.2,21.2,0,0,1,2.8-6.43,22.42,22.42,0,0,1,11.41-9c1.87-.63,5.33-1.82,7.12-.45,2,1.55-.56,4.6-1.78,5.75a33.71,33.71,0,0,1-6.7,4.56,51,51,0,0,1-7.66,3.52,53.77,53.77,0,0,1-16.5,3.18,52.41,52.41,0,0,1-8-.36c-2.48-.3-5.49-.58-7.71-1.81-.79-.43-1.69-1.13-1.37-2.14s1.73-1.73,2.68-2.16a55.35,55.35,0,0,1,8.63-2.89,71.07,71.07,0,0,1,36.25,0c2.58.69,5.58,1.32,7.66,3.12.64.55,1.45,1.39,1.28,2.32-.22,1.16-1.74,1.69-2.68,2.07a94.69,94.69,0,0,1-37,6.67c-3.12-.07-6.23-.3-9.32-.67l1.45,1.1c-1-3.61,4.54-5.32,7.12-5.87a121.7,121.7,0,0,1,13.85-1.79c9.3-.86,18.9-1,28,1.47a41.44,41.44,0,0,1,13.85,6.6l.36-2.75a116.82,116.82,0,0,1-47.38,2.24,118.9,118.9,0,0,1-13.22-2.91L663,516c11.31-6.33,25.78-5.83,37,.55a34.83,34.83,0,0,1,8.47,6.76l.67-2.51a68.73,68.73,0,0,1-36.61.13v2.9a105.77,105.77,0,0,1,52.72,2.5,104.08,104.08,0,0,1,14,5.46l.36-2.74a104.48,104.48,0,0,1-57.51.22v2.89a82.59,82.59,0,0,1,48.11,6.16l.76-2.8A167.47,167.47,0,0,1,671,532.67a170.32,170.32,0,0,1-16.47-4.76l1,1.84c.63-1.57,2.54-2.25,4-2.68a65.57,65.57,0,0,1,6.54-1.41,123.58,123.58,0,0,1,14.6-1.8A127.6,127.6,0,0,1,710,525.33a129.79,129.79,0,0,1,16.29,3.85v-2.89c-18.63,2.8-38.06,5-56.65.76a74.06,74.06,0,0,1-15-5l-.36,2.74a119.66,119.66,0,0,1,60.14.1,117.8,117.8,0,0,1,16.25,5.53l.35-2.74a87.1,87.1,0,0,1-46.28,2.55c-1.92-.43-3.82-.91-5.7-1.46-.92-.28-3.76-.7-4-2-.19-1,1.51-1.88,2.25-2.21a16.25,16.25,0,0,1,4.89-1,112.64,112.64,0,0,1,50.33,5.5v-2.89a118.59,118.59,0,0,1-74.15-4.64v2.89a86.4,86.4,0,0,1,45.83-2.11,87.84,87.84,0,0,1,12.48,3.86v-2.89a91.13,91.13,0,0,1-48.49,1A89.79,89.79,0,0,1,655,519.81v2.59a59.1,59.1,0,0,1,42.64-6.69,55.93,55.93,0,0,1,11.88,4.06l-.31-2.36c-2.12,2.75-5.33,3.89-8.65,4.5a85.55,85.55,0,0,1-12.49,1,155.38,155.38,0,0,1-27.18-1.39,114,114,0,0,1-13.08-2.42c-.94-.25-3.16-.89-3.26-2.13s2.3-1.63,3.17-1.79a158.17,158.17,0,0,1,24.43-3c9-.27,18.14.88,26.25,5l.36-2.74a149.82,149.82,0,0,1-50.89,8.68q-7.33,0-14.62-.79l.4,3A126.84,126.84,0,0,1,698.94,522l-.36-2.74a75.53,75.53,0,0,1-40,14.1,76.35,76.35,0,0,1-12.19-.35l.76,2.79A96.82,96.82,0,0,1,690.44,521a98.59,98.59,0,0,1,13.2-.3l-.76-2.79a56.32,56.32,0,0,1-45.15,9.72l.9.69c-1.69-3.29,3.2-6.2,5.57-7.32a85.22,85.22,0,0,1,12.53-4.36c8.4-2.47,17.21-4.1,26-3.26a38,38,0,0,1,14,4.1v-2.59a87.29,87.29,0,0,1-50.06,7.87,54.17,54.17,0,0,1-6.08-1.11c-1.29-.33-3.15-1-3.81-2.25-.78-1.5,1.29-2.27,2.37-2.58,2.1-.61,4.29-1,6.44-1.42A104.07,104.07,0,0,1,693.27,514a67.38,67.38,0,0,1,14.18,2.32c3.29,1,6.85,2.8,7.71,6.42l1.05-1.84a97.34,97.34,0,0,1-65.33,1.79l.36,2.74c13.25-10.07,31-11,46.5-6.15a63.62,63.62,0,0,1,12.86,5.68l.35-2.75a107.07,107.07,0,0,1-56,7.16v2.9a114,114,0,0,1,46.44-3.6l-.4-2.94a128.38,128.38,0,0,1-43.88,3.2l.4,3a373.55,373.55,0,0,1,75.81-10.45q10.89-.37,21.81-.1l-.4-2.95c-14.93,4.44-30.74,3-45.81.07l.36,2.74a23.61,23.61,0,0,1,21.09-2v-2.9a32.57,32.57,0,0,1-17,1.69l-.4,3a110.68,110.68,0,0,1,28.23.28v-2.89a45.06,45.06,0,0,1-27.65-4.91l-.36,2.74a68,68,0,0,1,35.74-2.78l.4-2.94a256.52,256.52,0,0,1-48.46-9.77v2.89a56.73,56.73,0,0,1,23.66-1.14l.4-2.95A396.71,396.71,0,0,1,673,497v3a376.23,376.23,0,0,1,55.64,8.55v-2.89a100.59,100.59,0,0,1-45.82-2.42v2.89a82.74,82.74,0,0,1,38.61,3.07l.4-2.94a179.25,179.25,0,0,1-57.93-3v2.9a100.32,100.32,0,0,1,47,3.11v-2.89a91.79,91.79,0,0,1-42-.65l-.4,2.94,39.09.87c1.93.05,1.93-2.93,0-3a107.91,107.91,0,0,1-39.28-8.87v2.59a60.74,60.74,0,0,1,34.95-3.79l.4-2.94a67.42,67.42,0,0,1-20.25-.65l-.4,2.94a101.2,101.2,0,0,1,28.87.66v-2.89a38.24,38.24,0,0,1-22.09.88v2.89a35.63,35.63,0,0,1,21.7-1.2l.4-2.95a77.93,77.93,0,0,1-31.49-3.35v2.89a91.16,91.16,0,0,1,27.93-.64v-3a131.34,131.34,0,0,1-37.46-4l-.39,2.94a71.23,71.23,0,0,1,28.86,4.59v-2.9l-15.55,4.48c-1.56.45-1.34,3.13.4,3A66,66,0,0,1,716,501.78l-.36-2.74a24.54,24.54,0,0,1-25.61-2l-.75,2.8a102.6,102.6,0,0,1,33.15,3.08l.4-2.94a158.81,158.81,0,0,1-43.24-8.58v2.89a218.59,218.59,0,0,1,33.49-2.8c1.66,0,2.09-2.57.4-2.95a245.9,245.9,0,0,1-35.21-10.69l-.4,2.95a83.23,83.23,0,0,1,35.93,4.79l.4-2.95a89.32,89.32,0,0,1-28.19-1.77l-.4,2.95a152.84,152.84,0,0,1,33.73,3.08c1.87.39,2.68-2.42.8-2.89l-34-8.57.36,2.74a35.29,35.29,0,0,1,22.53-2.68l-.36-2.74a14.29,14.29,0,0,1-14.34,1.35v2.59c3.59-1.78,12.16-3.62,13.4,2.07.69,3.13-2.21,6.06-5,7-4.12,1.38-8.67-.22-12.6-1.5l.9,2.2a14.23,14.23,0,0,1,16.92-5l-.69-1.69c-1.22,4.18-6.44,5.67-10.26,4.44a5.94,5.94,0,0,1-4.11-4.35,7.82,7.82,0,0,1,2.12-6.65c1.88-2.08,4.6-3.35,7.39-2.51l-1-1.85a17.83,17.83,0,0,1-18.35,10.82l1,1a8.07,8.07,0,0,1,6.74-9.32l-1.9-1.45a14.34,14.34,0,0,1-2.8,6.7,14.09,14.09,0,0,1-2.51,2.55c-.72.56-1.93,1.57-2.92,1.18-1.44-.56-1.41-3-.71-4.06,1.33-2,4.15-2.69,6.35-3.28l-1.84-1.84a15.14,15.14,0,0,1-6.8,10.05l2.2,1.69a23.39,23.39,0,0,1,7.42-13.67l-2.51-.66c1.94,7.31-2.24,15.73-9.36,18.43l1.15,2.74c6.91-5.24,17.93-3.83,23,3.37l.24-1.82c-9.6,11.05-25.84,10.94-39.25,9.88a29,29,0,0,1-5.66-.68c-1.11-.31-3.39-1.08-2.92-2.59l-.69.89a38.89,38.89,0,0,1,13.23-3c4-.18,8.24.05,11.92,1.67,2.88,1.27,5.73,3.72,5.47,7.15-.18,2.33-2,5.59-4.74,5.11l1.11,1.45c-.8-12.7,8.1-25.06,20.43-28.25a1.5,1.5,0,0,0,.66-2.5,10.06,10.06,0,0,1-3.49-8.67h-3v4.9h3l-.33-8.34-2.95.4c-.07-.29.2,0-.08,0s0,.14.06.15c-1.49-1.21-3.62.9-2.12,2.12a3.11,3.11,0,0,0,5-3.06,1.5,1.5,0,0,0-2.94.39l.33,8.34a1.5,1.5,0,0,0,3,0v-4.9c0-2-2.83-1.9-3,0a12.84,12.84,0,0,0,4.37,10.79l.66-2.51c-13.55,3.51-23.51,17.15-22.63,31.14a1.52,1.52,0,0,0,1.1,1.45,7,7,0,0,0,7.56-4.28,9,9,0,0,0-.76-9.37c-5-6.77-15.61-6.84-23.1-5.74a39.7,39.7,0,0,0-6.79,1.62,29,29,0,0,0-3.1,1.17,2.33,2.33,0,0,0-1.31,2.42c.09,3.6,4.59,5,7.51,5.35a98.93,98.93,0,0,0,23.39.24c8.35-1.09,16.5-4.13,22.15-10.62a1.53,1.53,0,0,0,.23-1.82c-5.91-8.42-18.79-10.74-27.09-4.45-1.22.92-.59,3.4,1.15,2.74a19,19,0,0,0,11.46-22.12,1.52,1.52,0,0,0-2.51-.66,26,26,0,0,0-8.18,15c-.2,1.2,1,2.45,2.2,1.69A18.1,18.1,0,0,0,687.47,472a1.52,1.52,0,0,0-1.85-1.84c-3.13.84-6.87,2-8.42,5.15-1.2,2.45-.6,6.07,1.85,7.55,3.13,1.89,6.69-1.09,8.68-3.35a17.78,17.78,0,0,0,4.28-9.55c.15-1.08-1.07-1.56-1.9-1.44-6,.86-10.06,7.19-8.83,13a1.42,1.42,0,0,0,1,1.05,20.89,20.89,0,0,0,22-12.91,1.5,1.5,0,0,0-1-1.84c-6.67-2-13.71,4.43-13.43,11.14s7.49,9.91,13.41,8.19a9.88,9.88,0,0,0,7-6.57,1.52,1.52,0,0,0-.69-1.7,17.29,17.29,0,0,0-21,6.1,1.51,1.51,0,0,0,.9,2.2c4,1.3,8.14,2.56,12.38,1.91a11,11,0,0,0,8-5.52,7.62,7.62,0,0,0-.67-8.53,9.44,9.44,0,0,0-7-3,19.14,19.14,0,0,0-9.33,2.13,1.51,1.51,0,0,0,0,2.59,17.29,17.29,0,0,0,17.37-1.35c1-.69,1-2.45-.36-2.74a38.6,38.6,0,0,0-24.85,3,1.52,1.52,0,0,0,.36,2.75l34,8.56.8-2.89a155.83,155.83,0,0,0-34.53-3.19c-1.65,0-2.1,2.56-.4,2.94a92,92,0,0,0,29,1.88,1.51,1.51,0,0,0,.4-3,85.51,85.51,0,0,0-36.73-4.89,1.51,1.51,0,0,0-.4,2.95,247.27,247.27,0,0,0,35.22,10.68l.39-2.94a224,224,0,0,0-34.29,2.91c-1.58.25-1.25,2.45,0,2.89a161.5,161.5,0,0,0,44,8.69c1.7.09,2-2.52.4-2.95a105.57,105.57,0,0,0-33.95-3.19,1.51,1.51,0,0,0-.76,2.79,27.52,27.52,0,0,0,28.63,2c1.26-.66.74-2.29-.35-2.74a68.07,68.07,0,0,0-32.64-4.66l.4,2.94,15.54-4.47a1.52,1.52,0,0,0,0-2.9,73.68,73.68,0,0,0-29.65-4.69,1.51,1.51,0,0,0-.4,2.95,133.94,133.94,0,0,0,38.25,4.08,1.5,1.5,0,0,0,0-3,93.54,93.54,0,0,0-28.73.75c-1.54.28-1.29,2.47,0,2.89a80.12,80.12,0,0,0,32.29,3.46c1.59-.15,2.14-2.49.4-2.94a38.42,38.42,0,0,0-23.3,1.2,1.51,1.51,0,0,0,0,2.89,41.13,41.13,0,0,0,23.69-.88c1.27-.43,1.58-2.62,0-2.89a103.88,103.88,0,0,0-29.67-.77c-1.52.19-2.22,2.61-.4,2.95a70.11,70.11,0,0,0,21,.76c1.52-.18,2.21-2.61.4-2.95a64.42,64.42,0,0,0-37.27,4.09,1.51,1.51,0,0,0,0,2.59,111.94,111.94,0,0,0,40.8,9.28v-3l-39.09-.87a1.51,1.51,0,0,0-.4,2.95,95.07,95.07,0,0,0,43.55.65c1.51-.33,1.35-2.47,0-2.89a103.73,103.73,0,0,0-48.59-3.12c-1.46.26-1.4,2.59,0,2.9a181.94,181.94,0,0,0,58.73,3.07,1.51,1.51,0,0,0,.4-2.95A85.92,85.92,0,0,0,682,503.24c-1.53.25-1.32,2.51,0,2.89a103.9,103.9,0,0,0,47.42,2.42c1.47-.26,1.39-2.57,0-2.89A382.85,382.85,0,0,0,673,497c-2-.15-1.88,2.79,0,3a396.71,396.71,0,0,0,51.92,2.48c1.62,0,2.12-2.66.39-2.94A60.21,60.21,0,0,0,700,500.68a1.51,1.51,0,0,0,0,2.89,259,259,0,0,0,49.25,9.88c1.67.17,2.05-2.63.39-3a71,71,0,0,0-37.33,2.78A1.52,1.52,0,0,0,712,516a48.38,48.38,0,0,0,30,5.21c1.43-.2,1.44-2.69,0-2.89a113.29,113.29,0,0,0-29-.39c-1.52.17-2.22,2.63-.4,2.94a35.64,35.64,0,0,0,18.64-1.68,1.52,1.52,0,0,0,0-2.9,26.52,26.52,0,0,0-23.41,2.27c-1,.64-1,2.48.36,2.74,15.59,3,32,4.53,47.4-.07a1.5,1.5,0,0,0-.39-2.94A377.48,377.48,0,0,0,678,524.4q-10.72,2-21.32,4.56c-1.75.43-1.2,2.79.4,2.95a130.55,130.55,0,0,0,44.68-3.31c1.77-.45,1.16-2.75-.4-3a116.36,116.36,0,0,0-47.24,3.7c-1.3.38-1.55,2.68,0,2.9a108.94,108.94,0,0,0,57.6-7.16,1.52,1.52,0,0,0,.36-2.74c-14.71-8.54-33.44-11.84-49.77-6.22a44.94,44.94,0,0,0-12.61,6.69,1.52,1.52,0,0,0,.36,2.74,101.07,101.07,0,0,0,52.39,2.56A98.26,98.26,0,0,0,717,523.77a1.54,1.54,0,0,0,1-1.84c-2-8.36-13.12-9.56-20.07-10.45a107.06,107.06,0,0,0-31.11.6c-2.57.43-5.13.95-7.66,1.57-1.8.44-3.74,1.08-4.85,2.67-2.56,3.65,1.44,6.86,4.61,7.94a37,37,0,0,0,6.45,1.28c2.44.36,4.9.64,7.37.8a88.26,88.26,0,0,0,14.45-.21,90.75,90.75,0,0,0,31-8.7,1.5,1.5,0,0,0,0-2.59c-15.32-8-33.32-4.46-48.87,1-3.65,1.28-7.4,2.47-10.45,4.93-2.53,2-4.75,5.48-3,8.74.5.95,1.26,1,2.25,1.24s2.13.39,3.2.55a59,59,0,0,0,6.07.54,59.8,59.8,0,0,0,12-.8,58.5,58.5,0,0,0,25-10.56,1.52,1.52,0,0,0-.75-2.8,99.39,99.39,0,0,0-58,15.59,1.52,1.52,0,0,0,.75,2.8,78.37,78.37,0,0,0,42.87-7.66,75.27,75.27,0,0,0,10.8-6.5c1-.69,1-2.45-.36-2.74a131.31,131.31,0,0,0-52.36-.44,129.89,129.89,0,0,0-14.52,3.73,1.5,1.5,0,0,0,.4,2.94,152.13,152.13,0,0,0,52.07-3.7q7.23-1.78,14.24-4.29c1.12-.41,1.59-2.12.36-2.75-16.36-8.33-35.68-5.55-53-2.3a7.17,7.17,0,0,0-4.51,2.21,3.89,3.89,0,0,0-.08,4.7,8.12,8.12,0,0,0,4.37,2.7,68,68,0,0,0,7.22,1.51A158.67,158.67,0,0,0,684,526a119.3,119.3,0,0,0,15.92-1c4.24-.61,8.7-2,11.43-5.51a1.51,1.51,0,0,0-.3-2.35,62.17,62.17,0,0,0-45.4-2.86,60.27,60.27,0,0,0-12.14,5.49,1.51,1.51,0,0,0,0,2.59,94.27,94.27,0,0,0,49.79,6.82,90.34,90.34,0,0,0,14.17-3.06,1.51,1.51,0,0,0,0-2.89,89.27,89.27,0,0,0-46.77-4.94,85.77,85.77,0,0,0-13.13,3.19,1.51,1.51,0,0,0,0,2.89,121.52,121.52,0,0,0,59.12,7.78,120.21,120.21,0,0,0,16.62-3.14,1.51,1.51,0,0,0,0-2.89,115.56,115.56,0,0,0-52-5.5c-3.14.39-7.16,1-8.79,4.17a3.83,3.83,0,0,0,.36,4.12c1.12,1.48,3.06,2,4.74,2.47a90,90,0,0,0,54.23-.89c1.08-.37,1.64-2.2.36-2.75a122.78,122.78,0,0,0-61.26-9.12,121.56,121.56,0,0,0-17.44,3.19,1.51,1.51,0,0,0-.36,2.74c17.92,8.33,38,8.73,57.36,6.75,5.56-.57,11.09-1.32,16.61-2.16,1.56-.23,1.3-2.49,0-2.89a130.83,130.83,0,0,0-62.21-3.44c-4.35.82-10.33,1.4-12.22,6.1a1.53,1.53,0,0,0,1,1.85,168.67,168.67,0,0,0,77.22,7.76c1.27-.16,2.29-2.09.75-2.79a86,86,0,0,0-50.42-6.46c-1.52.27-1.33,2.52,0,2.89a107.78,107.78,0,0,0,46.06,2.71A104.23,104.23,0,0,0,740.34,532a1.52,1.52,0,0,0,.36-2.74,108.86,108.86,0,0,0-53.58-10.38A110,110,0,0,0,671.68,521a1.52,1.52,0,0,0,0,2.9,71.89,71.89,0,0,0,38.2-.14,1.52,1.52,0,0,0,.66-2.51c-9.46-10.29-24.41-14.59-38-11.87a37.94,37.94,0,0,0-11,4.1,1.51,1.51,0,0,0,.36,2.74,120.2,120.2,0,0,0,62.2.68,1.52,1.52,0,0,0,.36-2.74c-8.26-6.07-18.38-8.49-28.48-8.94a109.51,109.51,0,0,0-15.68.54c-2.61.25-5.21.57-7.81.92a53.67,53.67,0,0,0-7.14,1.17c-4.16,1.15-9.5,4.17-8.11,9.29a1.56,1.56,0,0,0,1.45,1.1,97.51,97.51,0,0,0,43.11-4.6c1.55-.53,3.09-1.1,4.6-1.72a7.6,7.6,0,0,0,3.6-2.55c1.62-2.42.35-5.19-1.69-6.87-2.46-2-5.69-2.85-8.71-3.66a75.83,75.83,0,0,0-10.35-2,74.48,74.48,0,0,0-20.82.51,70.94,70.94,0,0,0-10.07,2.41c-2.86.91-6.35,1.8-8.58,3.93a4.55,4.55,0,0,0,.18,7c2.26,1.87,5.57,2.3,8.37,2.72a56.18,56.18,0,0,0,18.79-.34A55.3,55.3,0,0,0,695,506.33c2.62-1.55,5.47-3.29,7.41-5.68,1.72-2.1,3.09-5.13,1.51-7.7s-4.82-2.66-7.49-2.22a23.5,23.5,0,0,0-8,2.93,25.7,25.7,0,0,0-10.9,12.77c-1.87,4.79-2.74,12.73,3.63,14.51,2.83.8,5.91-.13,8.55-1.18a63.16,63.16,0,0,0,7.78-3.62c4.51-2.56,9.74-6.88,10.1-12.51.22-3.43-2.94-4.2-5.7-3.91q-5.5.6-11,1.52a188.48,188.48,0,0,0-42.14,12.25,230.59,230.59,0,0,0-38.59,21.22q-4.4,2.94-8.68,6c-1.54,1.11-.14,3.65,1.51,2.59l74.12-47.15,10.53-6.69c1.68-1.07,3.35-2.17,5-3.22,1.19-.73,2.89-1.86,4.25-.95,1.61,1.08,3.11-1.52,1.51-2.59Z" transform="translate(-469.64 -191.64)"/><path class="cls-2" d="M690,472.66c-11.22,10.64-22.08,21.73-31.68,33.88-9.39,11.87-17.58,24.74-23.15,38.85a105.64,105.64,0,0,0-6.48,24.54,1.51,1.51,0,0,0,2.74,1.15A805.63,805.63,0,0,0,680,498.76c3.57-6,8.52-13.39,5-20.49a1.52,1.52,0,0,0-2.59,0,308.51,308.51,0,0,1-30.69,46.37l2.51,1.46c2.71-13.83,8.35-27.64,18.43-37.76A48.17,48.17,0,0,1,682,481l-2.21-1.7a72.08,72.08,0,0,1-31.33,35.48,70,70,0,0,1-12.51,5.5l1.89,1.45c.81-16.67,10.47-32.39,24.46-41.33a49.62,49.62,0,0,1,12.79-5.82l-1.84-1.84a84.09,84.09,0,0,1-30.78,48.8L645,523a58.83,58.83,0,0,1,28-38.46,55.44,55.44,0,0,1,12.64-5.37l-1.46-2.51-36.69,41.84,2.36,1.82a98.82,98.82,0,0,1,32.1-30.73,100.73,100.73,0,0,1,11.38-5.82l-2.2-1.69a72.9,72.9,0,0,1-35.78,43.51,43.67,43.67,0,0,1-9.05,3.85c-1.58.41-3.42.62-4.84-.35a7.16,7.16,0,0,1-2.4-3.88c-2.38-7.32-3.82-15.71-2-23.31,1.46-6.21,5.58-12.05,11.62-14.51,5.78-2.34,11.85-.47,15.8,4.21a17.51,17.51,0,0,1,3.22,16.6c-1.92,6-6.66,10.92-12.15,13.9-6.65,3.6-14.49,4.35-21.92,3.79-1.94-.14-3.86-.38-5.78-.7v2.9a77.11,77.11,0,0,1,50.72.57V525.8a104.39,104.39,0,0,1-40.8,1.36v2.9a137.25,137.25,0,0,1,52.16-5.8,135.31,135.31,0,0,1,15,2.11v-2.89a43.56,43.56,0,0,1-27.31-1v2.89q16.95-4,34.21-6.33c1.45-.19,1.41-2.66,0-2.89a85.16,85.16,0,0,1-29-10.27c-3.72-2.17-7.45-4.81-9.63-8.62-2.32-4.05-2.08-8.71-.47-13,2-5.19,5.58-9.69,9.16-13.85l-2.36-.3a22,22,0,0,1,1.77,11.43h3a105.08,105.08,0,0,0-1.83-29.76,1.51,1.51,0,0,0-3,.4c.63,10.8.75,21.64.32,32.46-.19,4.8-.25,9.89-2.17,14.38a18,18,0,0,1-6.73,7.86c-6.07,4-13.48,5.49-20.32,7.68-7.78,2.49-14.88,6.19-20.25,12.51s-10.46,15.89-6.45,24c3.15,6.39,10.83,8.4,17.35,9a84.54,84.54,0,0,0,11.91,0,83.07,83.07,0,0,0,14.5-1.71c8.85-2,16-7,22.78-12.91s12.82-12,20.73-16c8.2-4.09,17.89-5.74,26.88-3.56a32.36,32.36,0,0,1,19.31,13.26,23.43,23.43,0,0,1,2.77,5.41c.28.86.55,2-.26,2.64a4.35,4.35,0,0,1-2.42.64,53.07,53.07,0,0,1-6.17-.27c-2.09-.14-4.18-.32-6.26-.58-8.28-1-16.72-3.55-22.34-10.08-2.93-3.4-4.91-7.53-6.74-11.58s-3.52-7.91-5.65-11.7a92.56,92.56,0,0,0-35.51-35.27q-2.79-1.54-5.69-2.89c-1.88-.87-4-2.06-6.06-2.28a4.13,4.13,0,0,0-4.32,2.37,7.59,7.59,0,0,0,0,5.19,32.16,32.16,0,0,0,2.55,5.49c1,1.81,2,3.58,3.1,5.31a91.78,91.78,0,0,0,7.53,10.14c11.09,13,25.3,23,39.64,32.12,3.54,2.25,7.1,4.44,10.67,6.63l.36-2.74a67.72,67.72,0,0,1-39.82,1.89,59.5,59.5,0,0,1-9.45-3.23c-2.33-1-5.12-2.51-5.94-5.12s.76-4.88,2.55-6.56a26.18,26.18,0,0,1,7.94-4.61,69.6,69.6,0,0,1,22.88-5.26c1.92-.1,1.93-3.11,0-3a72.47,72.47,0,0,0-22.42,4.86c-5.48,2.16-13.29,5.5-14.11,12.24-.86,7,7.17,10.12,12.5,12a70.31,70.31,0,0,0,46.67-.3,1.52,1.52,0,0,0,.36-2.74c-14.54-8.9-29.19-18-41.62-29.78A95.32,95.32,0,0,1,666.17,489c-1.11-1.81-2.15-3.66-3.1-5.55a13.75,13.75,0,0,1-1.87-5,2.51,2.51,0,0,1,.35-1.84c.65-.7,1.84-.18,2.57.11,2,.76,3.93,1.7,5.83,2.65a89.64,89.64,0,0,1,36.52,33.9,107.79,107.79,0,0,1,5.8,11.45,70.15,70.15,0,0,0,6.13,11.75c5,7.08,12.43,11,20.75,12.71a89.58,89.58,0,0,0,12.65,1.56c3.31.21,8.53,1.21,10.76-2,1.3-1.88.71-4.14-.11-6.09a29,29,0,0,0-2.77-5.15,34.38,34.38,0,0,0-8.27-8.49c-14.85-10.81-35-7.86-49.17,2.53-6.91,5.06-12.75,11.42-19.62,16.52a42.51,42.51,0,0,1-11.3,6.25,56.33,56.33,0,0,1-14.38,2.66c-7.61.56-16,1.26-23.29-1.38a12.59,12.59,0,0,1-7-5.53c-2.21-4.06-1.06-8.94.77-12.91a35.1,35.1,0,0,1,17.48-17.2c6.71-3,14-4.29,20.87-7s12.86-7.12,15.26-14.42c1.53-4.64,1.6-9.67,1.78-14.51q.3-7.92.21-15.86t-.56-15.85l-2.95.4a102,102,0,0,1,1.73,29c-.16,1.94,2.8,1.9,3,0A24.89,24.89,0,0,0,682,468.61a1.51,1.51,0,0,0-2.35-.3c-6.3,7.31-14,17.4-10.42,27.67,1.61,4.54,5.11,7.94,9,10.61A74.93,74.93,0,0,0,692.8,514,86.87,86.87,0,0,0,711,519v-2.89q-17.25,2.36-34.21,6.33c-1.55.36-1.29,2.41,0,2.89a46.41,46.41,0,0,0,28.91,1c1.35-.39,1.51-2.6,0-2.89a139.09,139.09,0,0,0-68.76,3.68c-1.29.41-1.55,2.64,0,2.9a108.31,108.31,0,0,0,42.4-1.37c1.54-.36,1.3-2.42,0-2.89a79.8,79.8,0,0,0-52.32-.58c-1.27.43-1.58,2.64,0,2.9,8.38,1.36,17.2,1.56,25.3-1.32a30.14,30.14,0,0,0,16.3-13.29,21.09,21.09,0,0,0,.79-19.7c-2.88-5.91-8.74-10.44-15.48-10.45-7.12,0-13.45,4.77-17,10.69-4.33,7.26-4.24,16.18-2.71,24.24.42,2.19.95,4.36,1.55,6.51a15.39,15.39,0,0,0,2.09,4.89c2.39,3.34,6.33,3.59,10,2.45a63.76,63.76,0,0,0,18.88-10.2A76.42,76.42,0,0,0,692.3,488c.63-1.69,1.2-3.39,1.7-5.12a1.52,1.52,0,0,0-2.2-1.7,101.71,101.71,0,0,0-44.56,37.62c-.92,1.42,1.23,3.11,2.35,1.82l36.69-41.84a1.51,1.51,0,0,0-1.46-2.5,61.72,61.72,0,0,0-38,32.19,58.62,58.62,0,0,0-4.69,13.73,1.52,1.52,0,0,0,2.51,1.46,87.56,87.56,0,0,0,27.68-37.27,85.14,85.14,0,0,0,3.86-12.85,1.52,1.52,0,0,0-1.85-1.85c-17,4.95-30.76,18.67-36.58,35.29a52.7,52.7,0,0,0-2.87,14.75,1.51,1.51,0,0,0,1.9,1.44,75.25,75.25,0,0,0,39.4-30.4,73.07,73.07,0,0,0,6.55-12.67c.5-1.25-1.17-2.32-2.21-1.69-12.78,7.69-21.13,20.71-25.88,34.6a96.23,96.23,0,0,0-3.25,12.26c-.25,1.31,1.49,2.74,2.51,1.46a312.85,312.85,0,0,0,31.16-47h-2.59c2.92,5.94-2.35,13-5.27,17.86q-5.34,9-10.91,17.76-11.26,17.82-23.45,35-6.84,9.67-14,19.13l2.75,1.15c2-14.76,7.37-28.76,14.83-41.61C654.07,516,663.68,504,674,492.93c5.82-6.26,11.9-12.27,18.1-18.15,1.4-1.33-.72-3.45-2.12-2.12Z" transform="translate(-469.64 -191.64)"/><path class="cls-2" d="M669.67,478.72a14,14,0,0,1-7.22,16.59l2.26,1.3a35.33,35.33,0,0,1,5.65-22.2l-2.74-1.16-5,16a1.51,1.51,0,0,0,2.51,1.46,46.65,46.65,0,0,1,12.6-9.73l-2.26-1.29a5.76,5.76,0,0,1-4.93,5.73l1.45,1.1a8.61,8.61,0,0,1,6.81-9.52l-1.9-1.45a15,15,0,0,1-6.55,14.17l2.2,1.69a21.92,21.92,0,0,1,6.86-12L676.88,478a19.19,19.19,0,0,1-5.39,7.89l2.5.66a12.46,12.46,0,0,1,3.69-11.1l-2.56-1.06a39,39,0,0,1-8.48,20.21c-.61.76-.58,2.34.66,2.51l28.5,3.84V498q-26.28,8-51.82,18.19c-1.44.58-1.44,3.06.4,2.95a248.9,248.9,0,0,1,38.9.65l-.76-2.8c-12.58,5.34-27,3.28-39.39,9.34-1.26.61-.75,2.34.36,2.74l18.57,6.75-.36-2.75a30.58,30.58,0,0,1-20.49,1.76l.36,2.74a29.77,29.77,0,0,1,16-2.71v-3a80.11,80.11,0,0,1-33.19-2.81V532a72.56,72.56,0,0,1,28.62-2v-3a91.76,91.76,0,0,1-28.37-2.08l-.4,2.95a131.27,131.27,0,0,1,40.69,2.84l.4-2.94a176.73,176.73,0,0,1-46.82-4.19v2.9a231.21,231.21,0,0,1,25.89-4.1q6.44-.64,12.91-.93c2-.09,4-.19,5.94-.16a8,8,0,0,1,5,1.32l.3-2.36a51.85,51.85,0,0,1-31.54,3.43l.36,2.74a76.36,76.36,0,0,1,50.21-10.69v-2.89a77.75,77.75,0,0,1-43.5,1.06v2.9a77,77,0,0,1,40.11-5.23v-2.89a74.89,74.89,0,0,1-35.18-2.4l-.39,3a175.1,175.1,0,0,1,59.41,3.41l.4-3c-12.34.86-25.57.84-36.55-5.64l-.76,2.8a86.17,86.17,0,0,1,33.51,3.51,31.35,31.35,0,0,1,4.79,1.7c1.07.54,2.31,1.27,2.21,2.61l1.5-1.5a126.35,126.35,0,0,1-36-7.06v2.9a65.93,65.93,0,0,1,34,3.23v-2.89a42.61,42.61,0,0,1-23.59.26l-.4,2.94c2-.15,4.25-.42,6.09.49,1.15.57,2.42,2.1,1.91,3.48s-2.66,1.68-3.92,1.9c-2.3.4-4.62.68-6.94.88a96.44,96.44,0,0,1-26.92-1.38v2.9a148.93,148.93,0,0,1,28-1.88q6.95.18,13.84,1a60.19,60.19,0,0,1,6.14.92c1.62.38,3.22,1,4,2.53l.9-2.21A126.34,126.34,0,0,1,665,523.22l-.4,2.94c14.13-.45,28.8,1.27,41.07,8.79v-2.59c-2.6,2-5.77,2.57-9,2.76-3.67.22-7.37.19-11.05.11a180.18,180.18,0,0,1-23.2-2v2.9a109.78,109.78,0,0,1,45.16,2.55l.4-3a117.2,117.2,0,0,1-48.82-5.64l-.4,2.94A144.36,144.36,0,0,1,709,536l.4-2.94A251.77,251.77,0,0,1,663,531.81v3c18.59,1.8,37.27,3.64,55.39,8.41l.4-3a129.45,129.45,0,0,1-48.89-3.88l-.4,3q14.44.48,28.83,2c4.74.49,9.48,1.07,14.19,1.73,3.88.55,8.21,1,11.35,3.58l1.06-2.56a172.81,172.81,0,0,1-55.85-3.6v2.89a109.65,109.65,0,0,1,49.06,4.33l.4-3a195.65,195.65,0,0,1-58.43-15.67c-4.22-1.88-8.76-4-11.2-8.13l.15,1.15c1.76-7.11,10.25-10.34,16.54-12.13a51.18,51.18,0,0,1,24.38-.87l-1.1-1.44c-.59,4.48-6.91,5.67-10.51,6-5.85.55-12.17.89-18-.31-4.47-.93-9.43-3.4-9.52-8.61-.11-5.63,4.54-9.61,9.46-11.33a34.29,34.29,0,0,1,32.37,6,31,31,0,0,1,9,12.76,28.85,28.85,0,0,1,1.08,3.65c.2.83.85,2.8.25,3.59s-5-3.83-5.65-4.52c-8.4-8.45-17.07-18.81-16.69-31.44l-.74,1.3c6.46-4.64,15-.08,20.42,4a82.88,82.88,0,0,1,17.63,18c2.23,3.15,4.51,7,3.83,11a7.88,7.88,0,0,1-2,4.19,6.05,6.05,0,0,1-5,1.65,39.06,39.06,0,0,1-11.17-3.07,57.14,57.14,0,0,1-27.24-22.91l.15,1.16c1.34-3.25,6.63-2.28,9.18-1.56a55.42,55.42,0,0,1,11.92,5,58.84,58.84,0,0,1,19,17,56.68,56.68,0,0,1,6.89,12.86l.15-1.16c-2.76,4.18-9,3.35-13.06,2.12a59.88,59.88,0,0,1-17.27-8.72l.74,1.29.21-3.39-1.5,1.5a73.17,73.17,0,0,1,41.46,14c2.37,1.73,7.32,5.35,5.47,8.86l1.3-.75a174.38,174.38,0,0,1-59.3-6.34c-5.41-1.54-10.73-3.36-16-5.42l.36,2.74c3-1.41,7.16-3.23,10.3-1.27,2.36,1.48,2.9,4.7,2.29,7.23-.81,3.37-3.6,5.83-6.4,7.63a55.87,55.87,0,0,1-10.1,5,67.66,67.66,0,0,1-23,4.55,65.28,65.28,0,0,1-11.52-.74,18.72,18.72,0,0,1-5.47-1.38c-1.37-.69-2.84-2.14-2.52-3.84.63-3.43,6.19-1.41,8-.55a29.22,29.22,0,0,1,9.92,7.61V559c-1.44,1.75-4.42.81-6.29.37-2.3-.54-4.68-1.41-5.67-3.75-1.94-4.62,1.56-9.21,5.34-11.47a38.11,38.11,0,0,1,7.19-3.09c2.91-1,5.86-1.92,8.85-2.7a55.36,55.36,0,0,1,18-2,32.46,32.46,0,0,1,17.18,6.15l-.74-1.3c-.26,3.79-3.61,6.5-7,7.54-4,1.2-8.42.89-12.5.39-6.89-.85-14.34-3.32-18.23-9.47l.15,1.15c1.18-7.86,9.9-11.33,16.62-13.25A74.19,74.19,0,0,1,705,528.74l-.9-2.2c-1.53,2.37-4.44,3-7.09,3.1a51.78,51.78,0,0,1-9.21-.74c-6.34-.89-13-2.42-17.67-7.1v2.12c2.7-3.47,7.24-3.83,11.33-3.59a29.94,29.94,0,0,1,6.86,1c2.1.64,4.56,2.44,3.9,4.95l1.44-1.1a58.89,58.89,0,0,1-20.1-2.31,57.91,57.91,0,0,1-9.67-3.83,37.18,37.18,0,0,1-8.11-5.07c-2.08-1.88-3.3-4.47-1.57-7,1.43-2.1,4-3.38,6.38-4.07a30.49,30.49,0,0,1,16.91.37,32,32,0,0,1,15.89,10.66l1.06-2.56a66.08,66.08,0,0,1-31.3-5.73c-2.12-1-4.73-1.95-6.39-3.65-.67-.69-1.11-1.49-.48-2.37a9.48,9.48,0,0,1,2.76-2.18c4.22-2.64,9.23-3.79,14.13-4.38,2.75-.33,5.82-.62,8.44.53,2.16.94,4.14,3.27,3.59,5.75-.42,1.89,2.47,2.69,2.89.8a7.84,7.84,0,0,0-2.29-7.26,11.69,11.69,0,0,0-7.94-3.07,40,40,0,0,0-9,.9,36.82,36.82,0,0,0-8.46,2.6c-2.4,1.09-5.54,2.7-6.9,5.07s.09,5,2.1,6.56a36.12,36.12,0,0,0,8,4.16,67.19,67.19,0,0,0,9.25,3.15,69.09,69.09,0,0,0,21.57,2.12,1.52,1.52,0,0,0,1.06-2.56,35.14,35.14,0,0,0-34.88-12c-5.46,1.31-12.39,6.12-9.72,12.6,1.32,3.2,4.47,5.22,7.31,7a61.68,61.68,0,0,0,35.44,8.86,1.53,1.53,0,0,0,1.45-1.1,6.88,6.88,0,0,0-3.19-7.38c-2.6-1.72-6-2-9-2.29-5.2-.49-11.41-.11-14.88,4.36a1.54,1.54,0,0,0,0,2.12c5.36,5.36,12.9,7.07,20.16,8,6.09.8,14.61,2.18,18.52-3.9a1.51,1.51,0,0,0-.89-2.2,77.53,77.53,0,0,0-48.31-.39c-5.83,1.89-12.38,5.08-15.17,10.9-.57,1.18-1.51,3.19-1.17,4.52s1.93,2.86,2.9,3.82a24.15,24.15,0,0,0,8.16,5.13,39.29,39.29,0,0,0,9.56,2.33,40.56,40.56,0,0,0,11.06.11,14.78,14.78,0,0,0,9.37-4.92,10.69,10.69,0,0,0,2.2-4.27,4.25,4.25,0,0,0,.12-2.39c-.33-.78-1.44-1.34-2.14-1.79-13.9-9.2-31.74-5.4-46.33-.15-6.37,2.29-13.11,6.1-13.65,13.61a8.91,8.91,0,0,0,3.62,8,14,14,0,0,0,5.1,2,16.73,16.73,0,0,0,4.82.6,5.47,5.47,0,0,0,4-1.83,1.55,1.55,0,0,0,0-2.12A31.2,31.2,0,0,0,629.38,551c-3.06-1.43-7.28-2.81-10.37-.67-3.66,2.53-2.25,7.52,1,9.72a15.71,15.71,0,0,0,6.41,2.1,68.82,68.82,0,0,0,6.87.81,70.08,70.08,0,0,0,27.81-3.77,62.15,62.15,0,0,0,12.53-5.85c3.45-2.16,6.8-5.12,8-9.15,1.1-3.75.25-8.33-3-10.74-4.2-3.08-9.66-1.07-13.85.91-1.3.61-.72,2.32.35,2.74a177.09,177.09,0,0,0,56.43,12.06q7.28.35,14.56.07c1.15,0,2.31-.09,3.46-.16s2.44.09,3.08-1.17a6.37,6.37,0,0,0,0-5.43c-1.67-3.93-5.56-6.49-9-8.78a73.32,73.32,0,0,0-11.52-6.34,76.33,76.33,0,0,0-29.19-6.48,1.53,1.53,0,0,0-1.5,1.5,22.78,22.78,0,0,0-.21,3.39c.1,1.07,1,1.51,1.83,2.06,1.72,1.17,3.48,2.26,5.3,3.26A62,62,0,0,0,709.6,536a22.12,22.12,0,0,0,9.45,1c2.68-.38,6.3-1.83,7.39-4.58.34-.84-.21-1.76-.53-2.53s-.67-1.61-1-2.41q-1.11-2.45-2.45-4.78a60.82,60.82,0,0,0-5.93-8.51,61.75,61.75,0,0,0-15.66-13.51,60.05,60.05,0,0,0-9.5-4.64,29.08,29.08,0,0,0-9.41-2.36c-2.82-.09-6,.64-7.59,3.16a2.53,2.53,0,0,0-.54,2.24,12.49,12.49,0,0,0,1.42,2.27c1,1.49,2.07,2.92,3.2,4.31a59.88,59.88,0,0,0,16.39,14,60.9,60.9,0,0,0,9.72,4.53c3.45,1.25,7.34,2.55,11,2.59a8.86,8.86,0,0,0,8.26-5.16,12.81,12.81,0,0,0,.24-10.07c-1.41-3.77-3.9-7-6.4-10.13a87.14,87.14,0,0,0-8.43-9.07c-5.47-5.11-11.85-10.43-19.35-12.06a14.54,14.54,0,0,0-10.11,1.09c-.7.39-1.72.9-2,1.72a8.91,8.91,0,0,0,0,2.73,30,30,0,0,0,.78,5.49c1.68,7.11,5.82,13.38,10.47,18.91,2.47,2.93,5.13,5.69,7.86,8.38,1.29,1.26,2.6,2.88,4.26,3.67a3.4,3.4,0,0,0,4.44-1.14,6.61,6.61,0,0,0,.46-4.59,28.72,28.72,0,0,0-1.39-5.14,33.87,33.87,0,0,0-5.2-9.27A35,35,0,0,0,681,490c-7.28-1.93-15.67-1.9-22.7,1a17.13,17.13,0,0,0-8.49,6.88,12.3,12.3,0,0,0-1.3,10.13c2.3,6.42,9.54,8.35,15.66,8.83a82.61,82.61,0,0,0,13.53-.14,23.49,23.49,0,0,0,9.39-2.38,8.79,8.79,0,0,0,4.85-6.69,1.49,1.49,0,0,0-1.11-1.45A54.32,54.32,0,0,0,665,507c-6.94,1.94-15.39,5.37-18.3,12.57a4.48,4.48,0,0,0-.55,2.51,7.5,7.5,0,0,0,1.54,2.37,19,19,0,0,0,4,3.6,59.89,59.89,0,0,0,10.81,5.31,195.25,195.25,0,0,0,25.81,8.81,200.36,200.36,0,0,0,30.16,5.56c1.75.19,1.93-2.44.4-2.94a112.91,112.91,0,0,0-50.65-4.33c-1.5.21-1.37,2.58,0,2.89a175.13,175.13,0,0,0,56.64,3.71c1.14-.11,2.18-1.65,1.06-2.56-3.25-2.66-7.24-3.56-11.31-4.16q-7.43-1.08-14.88-1.88-15.1-1.62-30.3-2.13a1.51,1.51,0,0,0-.4,2.95,132,132,0,0,0,49.69,4c1.57-.17,2.15-2.48.39-2.94-18.37-4.84-37.33-6.7-56.18-8.52-1.94-.19-1.89,2.77,0,3a251.77,251.77,0,0,0,46.42,1.26c1.61-.11,2.13-2.54.4-3a146.78,146.78,0,0,0-51-3.07,1.51,1.51,0,0,0-.39,3A119.31,119.31,0,0,0,708,538.75c1.6-.15,2.13-2.48.4-2.94a113.51,113.51,0,0,0-46.76-2.56c-1.43.22-1.43,2.68,0,2.9a187.74,187.74,0,0,0,24.49,2.09,111.63,111.63,0,0,0,11.57-.19c3.36-.28,6.76-1,9.49-3.1a1.53,1.53,0,0,0,0-2.59c-12.71-7.79-28-9.66-42.59-9.2-1.6.05-2.14,2.71-.4,3A130.34,130.34,0,0,0,711.05,524a1.52,1.52,0,0,0,.9-2.2c-1.8-3.64-6.35-4.08-9.91-4.57q-7.56-1-15.2-1.32a154.62,154.62,0,0,0-30.24,1.94c-1.45.24-1.41,2.62,0,2.9a99.77,99.77,0,0,0,25.58,1.65c2.14-.14,4.28-.36,6.41-.64a31.08,31.08,0,0,0,5.5-1c3.17-1,5.11-3.94,3.68-7.19-1.84-4.2-6.62-4.42-10.59-4.11a1.51,1.51,0,0,0-.4,2.95,45.61,45.61,0,0,0,25.19-.26,1.51,1.51,0,0,0,0-2.89A69,69,0,0,0,676.36,506c-1.59.28-1.26,2.45,0,2.9a129.25,129.25,0,0,0,36.82,7.16,1.52,1.52,0,0,0,1.5-1.5c.24-3.38-3.18-5.14-5.88-6.1a85.73,85.73,0,0,0-12.37-3.38,89.93,89.93,0,0,0-25.26-1.34,1.51,1.51,0,0,0-.75,2.79c11.44,6.76,25.18,6.95,38.06,6.05,1.6-.11,2.13-2.54.39-2.95a177.68,177.68,0,0,0-60.2-3.51,1.5,1.5,0,0,0-.4,2.94A78.13,78.13,0,0,0,685,511.5c1.41-.24,1.46-2.69,0-2.89a79.92,79.92,0,0,0-41.7,5.22c-1.27.53-1.57,2.48,0,2.9a80.74,80.74,0,0,0,45.1-1.07c1.27-.4,1.58-2.67,0-2.89a79.63,79.63,0,0,0-52.52,11,1.52,1.52,0,0,0,.35,2.74,55.27,55.27,0,0,0,33.86-3.73,1.5,1.5,0,0,0,.3-2.35c-3.19-2.57-7.29-2.25-11.15-2.12q-7,.26-13.89.92a236.77,236.77,0,0,0-27.65,4.29,1.52,1.52,0,0,0,0,2.9,180.15,180.15,0,0,0,47.61,4.29c1.63-.08,2.12-2.56.4-3a134,134,0,0,0-41.49-3c-1.59.13-2.16,2.53-.4,2.94A94.46,94.46,0,0,0,653,529.93a1.5,1.5,0,0,0,0-3,74.66,74.66,0,0,0-29.41,2.14,1.52,1.52,0,0,0,0,2.9,82.2,82.2,0,0,0,34,2.91,1.5,1.5,0,0,0,0-3A32.67,32.67,0,0,0,640.05,535a1.51,1.51,0,0,0,.36,2.74,33.85,33.85,0,0,0,22.81-2.06c1.28-.59.73-2.34-.36-2.74l-18.57-6.74.36,2.74c12.31-6,26.81-4,39.39-9.34,1.52-.64.53-2.67-.76-2.79a248.9,248.9,0,0,0-38.9-.65l.4,3q25.5-10.22,51.82-18.2c1.29-.39,1.56-2.68,0-2.89l-28.5-3.84.66,2.51a42.66,42.66,0,0,0,9.36-22.34c.15-1.36-1.71-1.89-2.56-1.06a15.52,15.52,0,0,0-4.46,14,1.52,1.52,0,0,0,2.51.66,22.2,22.2,0,0,0,6.17-9.21c.53-1.51-1.48-2.39-2.51-1.46a24.57,24.57,0,0,0-7.63,13.31c-.24,1.19,1,2.46,2.21,1.69a18,18,0,0,0,8-16.76,1.53,1.53,0,0,0-1.9-1.45,11.65,11.65,0,0,0-8.91,13.22,1.49,1.49,0,0,0,1.45,1.1,8.8,8.8,0,0,0,7.93-8.73,1.52,1.52,0,0,0-2.26-1.3,48.92,48.92,0,0,0-13.2,10.2L665.5,490l5-16c.53-1.68-1.84-2.54-2.74-1.16a38.08,38.08,0,0,0-6.06,23.72A1.52,1.52,0,0,0,664,497.9a17,17,0,0,0,8.59-20c-.58-1.83-3.48-1.05-2.89.8Z" transform="translate(-469.64 -191.64)"/></svg>