<svg id="Layer_1" data-name="Layer 1" xmlns="http://www.w3.org/2000/svg" viewBox="0 0 428.22 386.15"><defs><style>.cls-1{fill:#fed000;}.cls-2{fill:#2774ad;}.cls-3{fill:#030303;}.cls-4{fill:#fefefe;}</style></defs><title>Untitled-2</title><path class="cls-1" d="M683.06,185.92q73.52,0,147,0a70,70,0,0,1,41,12.88c14.75,10.33,22.23,24.95,25,42.3a85.5,85.5,0,0,1,1,13.28q.09,94.5,0,189c0,14.43-4.64,27.32-13.48,39-11.33,15-26.28,22.89-44.6,24.4a197.28,197.28,0,0,1-28.56,0c-8.83-.55-14.15-6.45-17.05-14.37-3-8.22-.93-15.77,5-21.88a21.53,21.53,0,0,1,16-6.79,145.73,145.73,0,0,0,25.49-2c7.2-1.3,13.24-10.05,13.24-17.31q.07-97.52,0-195c0-8.86-9.81-19.51-21.1-19.59-2.5,0-5,0-7.5,0q-144.3,0-288.59-.12c-9,0-20.66,7.61-22.18,15.85a32.71,32.71,0,0,0-.71,5.8c0,63.51.2,127-.26,190.52-.08,11.13,11.16,22.07,21.7,22,5.5,0,11,.27,16.5-.06,17-1,27.81,17.31,20.43,31.82-4.49,8.82-11.7,11.43-19.56,12-14.09,1-28.28.9-41.87-4.61q-34.12-13.83-39.92-49.93a106.68,106.68,0,0,1-1-16.78c-.07-62.67-.19-125.34.07-188,.06-13.5,5.16-25.5,13.11-36.65C492,198,505.8,191.4,521.3,187.36A53.13,53.13,0,0,1,534.52,186Q608.79,185.84,683.06,185.92Z" transform="translate(-468.94 -185.91)"/><path class="cls-2" d="M682.84,572c-26.5,0-53,.25-79.5-.2a43.18,43.18,0,0,1-17.78-4.33c-5.3-2.6-7.09-8.74-8.56-14.45-2.48-9.65,3-16.74,7.77-23.91,13.62-20.5,27.55-40.79,41.2-61.27,13-19.51,25.51-39.33,38.77-58.65,7.11-10.37,21-12,31.41-5.18,5.88,3.88,8.15,10.27,11.81,15.6,15.3,22.29,30.2,44.86,45.14,67.4,11.41,17.2,23,34.29,33.85,51.84,9.22,14.91-1.44,32.92-20.1,33.08C738.85,572.17,710.84,572,682.84,572ZM683,461.64c-15.43,22.94-29.74,44.22-44.42,66h89C712.58,505.46,698,483.83,683,461.64Z" transform="translate(-468.94 -185.91)"/><path class="cls-3" d="M672.15,278.14c-2.79,3.8-5,6.9-7.31,9.95-4.85,6.5-7,7.07-13.59,2.64s-14-5.85-21.86-5.17c-11.37,1-19.8,6.69-24.53,17.05a43.94,43.94,0,0,0,.46,39c8.07,16.51,29.54,21.35,44.44,10.43,6.65-4.88,7.47-4.8,13.19,1.35l7.5,8.06a44,44,0,0,1-29.38,16.82c-14.48,2.08-28.6,1.33-41.52-6.45-14.88-9-22.71-22.69-25-39.48-3-22.28,1.91-42.1,20.25-56.81,17.7-14.2,46.74-16.41,66.43-5.22C664.93,272.45,668.22,275.31,672.15,278.14Z" transform="translate(-468.94 -185.91)"/><path class="cls-3" d="M792.2,278.16c-3.05,4.13-5.49,7.49-8,10.8-4.09,5.4-6.45,6-12.14,2.23a33.72,33.72,0,0,0-20.25-5.75c-12.93.39-22.34,6.39-27.4,18.15a43.93,43.93,0,0,0,.77,37.69c8.09,16.8,29.62,21.82,44.69,10.73,6.47-4.76,7.5-4.67,12.85,1.1,2.49,2.68,5,5.35,8.51,9.12-5.52,4.07-10.29,8.92-16.07,11.58a59.81,59.81,0,0,1-50.32.64c-18.24-7.89-27.61-23-30.27-42.18-3.1-22.26,2-42.1,20.33-56.78,17.71-14.16,46.8-16.32,66.43-5.09C785.05,272.52,788.33,275.37,792.2,278.16Z" transform="translate(-468.94 -185.91)"/><path class="cls-4" d="M683,461.64c15,22.19,29.57,43.82,44.55,66h-89C653.27,505.86,667.58,484.58,683,461.64Z" transform="translate(-468.94 -185.91)"/><path class="cls-2" d="M646.48,510.42a1.5,1.5,0,0,0,0-3,1.5,1.5,0,0,0,0,3Z" transform="translate(-468.94 -185.91)"/><path class="cls-2" d="M715.56,531.58a316.85,316.85,0,0,1,40.91,5.87v-2.89L714.1,541.9c-1.9.33-1.09,3.22.8,2.89l42.37-7.34c1.46-.25,1.4-2.59,0-2.89a322.26,322.26,0,0,0-41.71-6c-1.92-.15-1.91,2.85,0,3Z" transform="translate(-468.94 -185.91)"/><path class="cls-2" d="M730.09,520.13,670.17,509l-17.2-3.2-.79,2.89,69.52,9.83,19.72,2.79.4-2.95L667,515.71,645.87,515c-2-.07-1.89,2.8,0,3l63,6.53-.4-3c-9.11,1.77-18.45.85-27.6-.13l-28.54-3L636,516.63v3q39.67,4,79.13,9.83,11.25,1.68,22.48,3.5v-2.9c-10.4,2.9-21.29,2.12-31.89.89-11.19-1.29-22.37-2.84-33.51-4.56q-9.4-1.44-18.78-3.07l-.4,2.94a334.92,334.92,0,0,1,66.82,3.24q9.35,1.41,18.61,3.35l.4-3c-27.24-.51-54.18-5-80.82-10.4-7.51-1.52-15-3.1-22.49-4.69l-.4,3q41.17,1.85,82,7.73,11.46,1.66,22.88,3.64l-.66-2.5c-2,2-4.74,2.74-7.46,3.08-3.18.4-6.42.43-9.61.55q-10.71.43-21.44.37-21.2-.12-42.32-2.1-12.07-1.12-24.07-2.87l-.4,2.94A610.18,610.18,0,0,1,717,532q11.67,1.27,23.3,3v-2.89c-7,2.86-14.52,3.54-22,3.62s-15.2-.15-22.79-.4c-15.09-.48-30.23-1.53-45-4.63a140.51,140.51,0,0,1-24.32-7.35l1,1.84c.36-2.29,3.23-2.8,5.15-3.1,3.53-.55,7.11-.94,10.67-1.35q10.77-1.23,21.59-2,21.51-1.53,43.1-1.2,6,.09,12.07.32c2.43.1,5.79.19,6.95,2.75l.9-2.21a232,232,0,0,1-59.33,1.42q-8.44-.88-16.81-2.4l.36,2.75c4.43-2.78,9.59-3.81,14.72-4.32,5.77-.56,11.58-.8,17.36-1q18.12-.76,36.26-.32,10.18.24,20.35.87l-1.3-2.25c-1.38,1.9-4,2.42-6.16,2.69-3,.37-6.15.51-9.22.69q-9.73.57-19.49.59a341.7,341.7,0,0,1-38.91-2.17q-10.95-1.25-21.79-3.21v2.89a275.72,275.72,0,0,1,67.55-4.59c6.44.36,12.88.95,19.28,1.75l-1.5-1.5c0,4.7-6.75,5.88-10.25,6.49q-10.23,1.76-20.57,2.76a289.88,289.88,0,0,1-40.83,1q-11.65-.53-23.26-2l.4,2.94a236.41,236.41,0,0,1,71.74-7.65q10.23.48,20.38,1.86l-1.29-.75c.78,1.72-.94,3.37-2.2,4.29a21.78,21.78,0,0,1-6.1,2.74,125.59,125.59,0,0,1-64.46,4l.36,2.74c14.52-8.47,31.54-10.78,48.1-10.74,4.79,0,9.56.22,14.34.53l-.4-2.95a346.94,346.94,0,0,1-62.54,8.35q-9,.36-18,.28l.4,2.94a534.09,534.09,0,0,1,62-7q8.83-.41,17.67-.39l-1.3-2.26c-.89,2-2.76,3.05-4.78,3.73a68.78,68.78,0,0,1-7.87,1.89q-9,1.89-18.1,3.08a241.81,241.81,0,0,1-36,2q-10.34-.2-20.64-1.3l.4,3a196.67,196.67,0,0,1,54.81-10.44q7.89-.36,15.8-.08l-.4-2.94a121.87,121.87,0,0,1-48.7,3.48,120.53,120.53,0,0,1-13.83-2.67V520a247.73,247.73,0,0,1,55.86-10.05q8-.51,16-.49l-.4-2.95a279.22,279.22,0,0,1-52.53,5.71c-5,.07-10,0-15-.2l.4,2.94a187.66,187.66,0,0,1,51.12-7.18q7.35,0,14.69.57l-.4-2.95a230.27,230.27,0,0,1-51.42,6.56c-5,.07-9.93,0-14.88-.28l.4,3a207.35,207.35,0,0,1,54-8.22q7.77-.13,15.52.3l-1.45-1.1c.48,1.36-9.9,3.43-11.17,3.72q-6.82,1.56-13.76,2.59a177.8,177.8,0,0,1-27.76,1.86c-5.3,0-10.6-.35-15.88-.87l.4,2.94a440.25,440.25,0,0,1,64.73-8.07q9.3-.47,18.62-.53l-.4-2.94a239.48,239.48,0,0,1-73.76,4.08c-7-.69-14-1.72-20.88-3l.9,2.2c1.68-3.89,5.72-5.51,9.58-6.5a159,159,0,0,1,15.93-2.84,341.7,341.7,0,0,1,35.26-3.4q10-.43,20-.3l-.4-2.94a340.72,340.72,0,0,1-49.42,3.91c-4.74,0-9.49-.05-14.22-.21l.39,2.95a135.87,135.87,0,0,1,51.17-7.33c3.13.15,8.67-.23,10.31,3.18l.89-2.21a278.13,278.13,0,0,1-54,7.67c-5.14.22-10.3.29-15.45.23l.4,2.95a200.26,200.26,0,0,1,48.27-4.51q7,.21,13.91.89l-.4-2.95A97.77,97.77,0,0,1,649.93,500v2.9a170,170,0,0,1,47.41-4.76l-.4-2.94a198.32,198.32,0,0,1-58,5.09l.4,2.94a314.5,314.5,0,0,1,59.13-3.36q8.31.3,16.6,1.06l-.4-2.95a117.42,117.42,0,0,1-47.07,7.23,115.25,115.25,0,0,1-13.49-1.51v2.89a172.44,172.44,0,0,1,48-4.44q6.93.33,13.82,1.22l-.4-2.95a163,163,0,0,1-48.39,3.85q-6.95-.48-13.82-1.57v2.89A207.09,207.09,0,0,1,710,501v-3a257.76,257.76,0,0,1-49.84.33l.4,2.94A248.46,248.46,0,0,1,720.89,496v-3a278.65,278.65,0,0,1-57-3.1v2.89a180.39,180.39,0,0,1,47.84-3.59v-3q-30.29,3.3-60.74,4.67v3q26.25-2.18,52.61-2.16,7.53,0,15.08.19l-.4-3a154,154,0,0,1-50-1.3v2.89a194.49,194.49,0,0,1,37.75-3.62l-.39-2.95a269,269,0,0,1-58.4,1.49l.4,2.95a169.51,169.51,0,0,1,50.89-4.26l-.4-2.94a102.52,102.52,0,0,1-48.72-.48v2.89a128.69,128.69,0,0,1,47.23-4.94,125.65,125.65,0,0,1,13.66,1.89v-2.9a313.12,313.12,0,0,1-56.05,3.95q-8-.17-15.92-.72l1.29,2.26c1.93-2.66,5.89-2.86,8.87-3.1q6.65-.54,13.31-.85,13.45-.63,26.93-.31,7.66.19,15.31.68l-.4-2.95a163.61,163.61,0,0,1-55.62,1v2.89a214.6,214.6,0,0,1,50.4-1l-.4-2.95a149.32,149.32,0,0,1-44.62.65l-.4,2.94,48.12-2.21-.4-3a101.14,101.14,0,0,1-40.36-2.06v2.89a65.77,65.77,0,0,1,29-3.28l-.4-2.94a113,113,0,0,1-32.75,2.41l.4,2.95a160.13,160.13,0,0,1,45.4-5.12l-.4-2.94a214,214,0,0,1-49.47,2.54v3a307.8,307.8,0,0,1,55.31.48l-.4-2.95a137.38,137.38,0,0,1-42.4,2.93l.4,2.95a106.61,106.61,0,0,1,37.4-2.79v-3a189.42,189.42,0,0,1-43.69-3.34v2.9a131.65,131.65,0,0,1,30.75-6.75c1.89-.18,2-3.1,0-3L664,461.12v3a277.27,277.27,0,0,1,49.57-.3l-.76-2.8a68.51,68.51,0,0,1-30.4,5.89l.4,2.95a126.66,126.66,0,0,1,23.75-1.38v-3a208.21,208.21,0,0,1-39.31,1v3q20.67-1.9,41.43-2.21l-.4-2.95a106.6,106.6,0,0,1-33.67,1.37l.4,2.94A94.23,94.23,0,0,1,697,465a1.5,1.5,0,0,0,0-3,45.77,45.77,0,0,0-17.42,1.54,1.5,1.5,0,0,0,.4,2.94,16.69,16.69,0,0,1,14.16,8.17l.9-2.2a307.44,307.44,0,0,1-49.47,13.13c-1.9.34-1.08,3.21.8,2.89a163.08,163.08,0,0,1,41.81-1.43l-.4-2.95a142.94,142.94,0,0,1-41.15,3v3c13.59-1.39,27.67-2.77,40.92,1.49v-2.89A157.91,157.91,0,0,1,648,494.38v3a351.23,351.23,0,0,1,49.79-3.09l-.4-2.94-26.64,3.91c-1.45.21-1.42,2.64,0,2.89L710.12,505v-2.89a62.74,62.74,0,0,1-19.1,2.78l.4,2.94a105.6,105.6,0,0,1,36.2,1.33v-2.89a203.91,203.91,0,0,1-45.9,6.55,1.5,1.5,0,0,0,0,3l41,1v-3a232.37,232.37,0,0,1-41.87.23l.39,2.94A84.33,84.33,0,0,1,719,514V511.1l-20.74,8.27a1.5,1.5,0,0,0,.4,2.94,228.43,228.43,0,0,0,32.35,1v-3a198.87,198.87,0,0,1-34.51.37l.4,3a48.62,48.62,0,0,1,23.49.13v-2.89a100,100,0,0,1-28.65,6.31,1.5,1.5,0,0,0,0,3,161.54,161.54,0,0,0,28.59,0c1.89-.17,2-3,0-3q-12.65-.06-25.23-1.37v3a144.27,144.27,0,0,1,23.78-1.16v-3l-8.11.92c-1.87.21-2,3,0,3l21.83.23v-3a126.29,126.29,0,0,1-21-.55l.4,2.95,22.69-3.48c1.76-.27,1.19-2.84-.4-3l-24.67-1.65v3L732.43,521a1.5,1.5,0,0,0,0-3q-12.87-1.12-25.61-3.27-6.35-1.07-12.65-2.4a71.72,71.72,0,0,1-10.83-2.69c-2.64-1-5.81-2.83-5.8-6l-.44,1.06a37.43,37.43,0,0,1,13.84-8.61c1.24-.43,1.6-2.66,0-2.89l-19.21-2.78v2.89a74.87,74.87,0,0,1,27.35.74v-2.89a246.54,246.54,0,0,1-34.42,3,1.5,1.5,0,0,0,0,3l34,1.63v-3l-29.15,2a1.5,1.5,0,0,0,0,3L693.73,502l-.4-2.94L681,500.74c-1.76.24-1.17,2.83.4,2.94a69.2,69.2,0,0,1,12.48,2.08l.4-2.95-11.5,1.24.4,2.95,4.7-.95c1.89-.39,1.09-3.28-.8-2.9l-4.7,1c-1.63.34-1.3,3.13.4,2.95l11.5-1.24c1.58-.17,2.16-2.49.4-2.95a74.49,74.49,0,0,0-13.28-2.18l.4,2.95L694.13,502c1.74-.24,1.19-2.86-.4-3l-24.27-1.29v3l29.15-2a1.5,1.5,0,0,0,0-3l-34-1.63v3A252,252,0,0,0,699.88,494c1.47-.23,1.39-2.59,0-2.89a78.73,78.73,0,0,0-29-.74c-1.42.22-1.44,2.68,0,2.89l19.21,2.78v-2.89a40.88,40.88,0,0,0-13.63,7.94c-.9.8-2,1.52-2,2.81a7,7,0,0,0,.75,3,10.26,10.26,0,0,0,4.18,4.13c4.3,2.51,9.58,3.22,14.38,4.23q8.91,1.86,17.92,3.22,10.29,1.55,20.66,2.45v-3l-22.82,2.09a1.5,1.5,0,0,0,0,3l24.67,1.65-.4-2.94-22.69,3.48c-1.8.28-1.13,2.78.4,2.94a126.29,126.29,0,0,0,21,.55,1.5,1.5,0,0,0,0-3l-21.83-.23v3l8.11-.92a1.5,1.5,0,0,0,0-3,144.27,144.27,0,0,0-23.78,1.16,1.5,1.5,0,0,0,0,3q12.57,1.32,25.23,1.37v-3a161.54,161.54,0,0,1-28.59,0v3a102.46,102.46,0,0,0,29.44-6.42,1.51,1.51,0,0,0,0-2.89,51.75,51.75,0,0,0-25.07-.13c-1.73.42-1.22,2.82.39,2.94A198.87,198.87,0,0,0,731,523.3c1.89-.19,2-3.08,0-3a228.43,228.43,0,0,1-32.35-1l.4,3L719.81,514c1.19-.47,1.65-2.64,0-2.89a87.55,87.55,0,0,0-39.35,3,1.51,1.51,0,0,0,.4,3,232.37,232.37,0,0,0,41.87-.23,1.5,1.5,0,0,0,0-3l-41-1v3a207.49,207.49,0,0,0,46.7-6.66,1.51,1.51,0,0,0,0-2.89,109.57,109.57,0,0,0-37.79-1.33c-1.71.24-1.24,2.93.39,2.95a65.45,65.45,0,0,0,19.9-2.89c1.3-.4,1.54-2.63,0-2.89l-39.41-6.85v2.89l26.64-3.91c1.71-.25,1.24-2.93-.4-2.95A351.23,351.23,0,0,0,648,494.38c-1.84.25-2,3,0,3a161.06,161.06,0,0,0,40.42-5.74,1.51,1.51,0,0,0,0-2.89c-13.51-4.35-27.86-3-41.72-1.6a1.5,1.5,0,0,0,0,3,146,146,0,0,0,42-3.15c1.76-.39,1.19-2.8-.4-2.95a166.15,166.15,0,0,0-42.61,1.54l.8,2.89a306.29,306.29,0,0,0,49.46-13.13,1.52,1.52,0,0,0,.9-2.2A19.76,19.76,0,0,0,680,463.49l.4,2.95A43.59,43.59,0,0,1,697,465v-3a97.89,97.89,0,0,0-22.8,3.7,1.51,1.51,0,0,0,.4,3,109,109,0,0,0,34.47-1.48c1.67-.34,1.27-3-.4-2.94q-20.75.3-41.43,2.21a1.5,1.5,0,0,0,0,3,208.21,208.21,0,0,0,39.31-1,1.5,1.5,0,0,0,0-3A131,131,0,0,0,682,467c-1.73.26-1.22,2.89.4,2.94a71.83,71.83,0,0,0,31.91-6.29c1.49-.67.56-2.69-.75-2.8a277.27,277.27,0,0,0-49.57.3c-1.89.18-1.95,3.1,0,3l25.53-1.34v-3A135.19,135.19,0,0,0,658,466.63c-1.28.45-1.56,2.59,0,2.9A193.56,193.56,0,0,0,702.49,473a1.5,1.5,0,0,0,0-3,108.78,108.78,0,0,0-38.2,2.9c-1.72.44-1.22,2.8.4,2.94a140.29,140.29,0,0,0,43.19-3c1.76-.41,1.19-2.79-.39-2.95a307.8,307.8,0,0,0-55.31-.48,1.5,1.5,0,0,0,0,3,217,217,0,0,0,50.27-2.65c1.72-.29,1.23-2.9-.4-2.95a163.23,163.23,0,0,0-46.2,5.22c-1.7.45-1.23,2.83.4,2.95a116,116,0,0,0,33.55-2.52c1.77-.4,1.16-2.77-.4-2.95a67.83,67.83,0,0,0-29.81,3.39,1.51,1.51,0,0,0,0,2.89,104.6,104.6,0,0,0,41.94,2.06c1.68-.25,1.28-3-.39-2.94L653,477.06c-1.58.08-2.15,2.71-.39,2.95a154,154,0,0,0,46.21-.64c1.78-.3,1.15-2.8-.4-2.95a218.17,218.17,0,0,0-51.2,1.13c-1.44.2-1.42,2.67,0,2.89a167.87,167.87,0,0,0,57.22-1c1.74-.33,1.2-2.84-.4-2.94a369.29,369.29,0,0,0-56.64.57c-3.91.35-7.93,1.13-10.37,4.49-.72,1,.27,2.19,1.3,2.26a316.31,316.31,0,0,0,56.82-1.15q8-.9,16-2.18c1.45-.24,1.41-2.62,0-2.9a131.92,131.92,0,0,0-48.92-.21,129.43,129.43,0,0,0-13.57,3.27,1.51,1.51,0,0,0,0,2.89,105.73,105.73,0,0,0,50.32.48c1.72-.4,1.22-2.84-.4-2.95a172.46,172.46,0,0,0-51.68,4.36c-1.74.42-1.21,2.82.39,3a271.86,271.86,0,0,0,59.19-1.6c1.71-.23,1.25-2.94-.4-2.94a198.85,198.85,0,0,0-38.55,3.73,1.51,1.51,0,0,0,0,2.89,158.19,158.19,0,0,0,51.6,1.3c1.72-.23,1.22-2.9-.4-2.94q-26.33-.64-52.65.9-7.51.45-15,1.07c-1.9.16-2,3.09,0,3q30.43-1.36,60.74-4.67a1.5,1.5,0,0,0,0-3,183.05,183.05,0,0,0-48.64,3.7c-1.39.29-1.47,2.65,0,2.89A282.2,282.2,0,0,0,720.89,496a1.5,1.5,0,0,0,0-3,252,252,0,0,0-61.12,5.45c-1.76.38-1.19,2.8.39,3A257.76,257.76,0,0,0,710,501a1.5,1.5,0,0,0,0-3,209.7,209.7,0,0,0-57.46,4.63c-1.39.3-1.48,2.66,0,2.89a166.87,166.87,0,0,0,49.74.37c4.72-.67,9.41-1.56,14.06-2.64,1.79-.42,1.15-2.75-.4-2.95a175.71,175.71,0,0,0-48.8.63q-7,1.07-13.85,2.7c-1.38.32-1.48,2.63,0,2.89a120.51,120.51,0,0,0,48.8-1.61,117.74,117.74,0,0,0,13.36-4.11,1.5,1.5,0,0,0-.4-2.94,316.66,316.66,0,0,0-59.62.27q-8.48.84-16.91,2.14c-1.75.27-1.19,2.85.4,2.95a201,201,0,0,0,58.81-5.2c1.7-.41,1.26-2.88-.39-3A173.48,173.48,0,0,0,649.13,500c-1.38.34-1.48,2.63,0,2.9A100.92,100.92,0,0,0,699.85,499a1.5,1.5,0,0,0-.39-2.94,202.74,202.74,0,0,0-49,1.19q-7,1-13.94,2.54c-1.68.36-1.26,2.92.4,2.94A283.41,283.41,0,0,0,691.81,498q7.71-1.44,15.34-3.29a1.53,1.53,0,0,0,.9-2.21c-1.56-3.24-5.35-4.08-8.62-4.38a125.84,125.84,0,0,0-13.59-.43A139.75,139.75,0,0,0,658.42,491a138.29,138.29,0,0,0-15.23,4.31,1.51,1.51,0,0,0,.4,2.95,344.85,344.85,0,0,0,50.19-1.91q7.14-.81,14.25-1.9c1.71-.26,1.24-2.92-.4-2.95a346.45,346.45,0,0,0-37,1.48q-9.06.85-18.07,2.18c-5.57.82-11.26,1.58-16.73,2.95-4.6,1.15-9.54,3.29-11.54,7.92a1.52,1.52,0,0,0,.89,2.2,241.72,241.72,0,0,0,75.1,2.52q10.65-1.32,21.13-3.56c1.67-.36,1.28-3-.39-2.95a444.82,444.82,0,0,0-65.81,5.42q-9.21,1.46-18.34,3.29c-1.77.36-1.17,2.79.4,3a181.47,181.47,0,0,0,60.51-4.23,56.18,56.18,0,0,0,7.92-2.18c1.87-.77,3.81-2.46,3-4.69a1.57,1.57,0,0,0-1.45-1.1,210.85,210.85,0,0,0-55,4.19q-7.72,1.63-15.29,3.84a1.5,1.5,0,0,0,.4,2.94,234.06,234.06,0,0,0,52.53-3.31q7.33-1.3,14.57-3.08c1.72-.42,1.22-2.82-.4-2.94A190.08,190.08,0,0,0,652,508.51Q644.66,510,637.46,512a1.51,1.51,0,0,0,.4,3,284,284,0,0,0,53.33-2.94c5-.75,10-1.65,15-2.67,1.68-.35,1.27-2.95-.4-2.95a251.6,251.6,0,0,0-57,6.46q-7.93,1.83-15.75,4.19a1.51,1.51,0,0,0,0,2.89,124.46,124.46,0,0,0,64.13-.81,1.51,1.51,0,0,0-.4-2.95,199.29,199.29,0,0,0-56,6q-7.77,2-15.37,4.59a1.5,1.5,0,0,0,.4,2.94,243.72,243.72,0,0,0,75.29-3.8c4.92-1,12.34-1.75,14.68-7a1.52,1.52,0,0,0-1.29-2.26,447.23,447.23,0,0,0-62.78,4.77c-5.92.82-11.82,1.74-17.72,2.71-1.71.28-1.25,2.93.4,3a352.12,352.12,0,0,0,63.68-5.2c5.9-1,11.77-2.21,17.6-3.53,1.73-.39,1.22-2.84-.39-3-17-1.11-34.68-.92-51,4.7a72.4,72.4,0,0,0-13,5.92,1.51,1.51,0,0,0,.36,2.74,128.46,128.46,0,0,0,35.22,2.2,132.12,132.12,0,0,0,17.37-2.5,101.56,101.56,0,0,0,16.91-4.9c3.58-1.45,8.6-5,6.93-9.54-.56-1.51-1.83-1.44-3.24-1.62-1.58-.2-3.15-.39-4.73-.56q-4.62-.5-9.25-.81a236.75,236.75,0,0,0-36.61.37,239.58,239.58,0,0,0-40.68,7.12c-1.76.47-1.18,2.75.4,3a285.24,285.24,0,0,0,86.66-2.14c4.8-.88,11.27-3.33,11.25-9.17a1.54,1.54,0,0,0-1.5-1.5,277.08,277.08,0,0,0-68.58-.07q-9.57,1.19-19,3a1.51,1.51,0,0,0,0,2.89,342.84,342.84,0,0,0,81.48,4.87c3.39-.21,6.85-.32,10.21-.86,2.88-.46,5.52-1.56,7.27-4,.72-1-.27-2.19-1.29-2.26q-18.48-1.12-37-1c-12.1.08-24.28.36-36.34,1.46-5.87.54-11.8,1.61-16.88,4.78-1,.63-1,2.51.36,2.75a234.94,234.94,0,0,0,60.55,3c5.75-.46,11.48-1.15,17.18-2,1.06-.17,1.25-1.43.9-2.21-1.13-2.49-3.78-3.56-6.33-3.95a83.43,83.43,0,0,0-10.6-.51q-11.58-.29-23.17,0-23.4.51-46.69,3.21c-4,.46-8,.75-11.93,1.57-2.7.56-5.81,2-6.29,5a1.56,1.56,0,0,0,1,1.84c14.19,5.82,29.3,8.84,44.51,10.46a447.3,447.3,0,0,0,46.16,2c8.47,0,17.14-.49,25.06-3.73,1.18-.48,1.66-2.64,0-2.89a613.14,613.14,0,0,0-83.32-6.66q-11.82-.14-23.65.2c-1.6,0-2.14,2.7-.4,2.95a483.88,483.88,0,0,0,87.89,4.74c3.7-.14,7.46-.18,11.13-.68a15,15,0,0,0,8.8-3.86,1.51,1.51,0,0,0-.66-2.51q-40.89-7.08-82.34-10.11-11.68-.86-23.38-1.37c-1.67-.08-2.06,2.59-.4,2.94,26.8,5.67,53.68,11.34,81,13.89,7.69.71,15.4,1.17,23.12,1.31,1.66,0,2.08-2.59.4-2.94a338.33,338.33,0,0,0-67.08-7.14q-9.58,0-19.15.44c-1.59.08-2.15,2.64-.4,3q17.05,3,34.19,5.32c11,1.52,22.17,3.32,33.31,3.52A64.35,64.35,0,0,0,738.37,533c1.33-.37,1.53-2.65,0-2.9q-39.75-6.45-79.78-11-11.31-1.29-22.63-2.42c-1.92-.19-1.9,2.8,0,3l29.07,3.1c9.5,1,19.05,2.37,28.6,2.75a67.47,67.47,0,0,0,15.67-1c1.78-.34,1.16-2.78-.4-2.94l-63-6.53v3l74.82,2.62,21.13.74c1.65.06,2.09-2.7.4-2.94l-69.52-9.83L653,505.77c-1.86-.27-2.72,2.53-.79,2.89l59.92,11.16L729.3,523c1.88.35,2.69-2.54.79-2.9Z" transform="translate(-468.94 -185.91)"/><path class="cls-2" d="M704.15,502.39c-.16-2.47-.62-7.47,2.41-8.54a3.32,3.32,0,0,1,3,.43c1.06.9-.07,2.11-.78,2.83a25.48,25.48,0,0,1-20.13,7.26l1.44,1.1c-.83-2,1.87-3.57,3.3-4.44a50.66,50.66,0,0,1,6.48-3.31,50,50,0,0,1,14-3.62l-.4-2.94q-23.36,6.24-47.15,10.7l.8,2.89a183.63,183.63,0,0,1,25.29-3c4.22-.2,8.46-.25,12.69-.16q3.18.08,6.34.25c.88,0,3.51-.13,3.88,1l1.05-1.84a41.73,41.73,0,0,1-24,2.34l.36,2.74a51.89,51.89,0,0,1,22.52-4.08l-.4-2.95A61,61,0,0,1,695.45,503l.76,2.79a25.43,25.43,0,0,1,15.44-4l-.4-2.94a13.88,13.88,0,0,1-7-.82l.89,2.2a9.37,9.37,0,0,1,6.36-4.19c1.48-.28,1.38-2.56,0-2.9a44,44,0,0,0-10.41-1.28v3l21-1.7c1.91-.15,1.93-3.16,0-3l-21,1.7c-1.9.16-2,3,0,3a40.45,40.45,0,0,1,9.61,1.18v-2.9a12.35,12.35,0,0,0-8.15,5.58,1.51,1.51,0,0,0,.9,2.2,17,17,0,0,0,8.59.82c1.75-.27,1.19-2.85-.4-2.95a28.17,28.17,0,0,0-16.95,4.4,1.51,1.51,0,0,0,.75,2.8,63.29,63.29,0,0,0,20.14-4,1.5,1.5,0,0,0-.39-2.94,55.27,55.27,0,0,0-24,4.49,1.51,1.51,0,0,0,.36,2.74A44.48,44.48,0,0,0,717.15,504a1.54,1.54,0,0,0,1.05-1.85c-1.22-3.8-6.56-3.24-9.69-3.37q-7.08-.27-14.16,0a188.6,188.6,0,0,0-28,3.15c-1.89.35-1.09,3.25.8,2.89q23.76-4.46,47.15-10.7c1.58-.42,1.32-3.14-.4-2.95a54.09,54.09,0,0,0-16.74,4.58c-3.56,1.63-12.09,5.28-9.91,10.59a1.59,1.59,0,0,0,1.45,1.1,28.55,28.55,0,0,0,21-6.92c2.29-2,5-5.36,2.22-8.15a6.23,6.23,0,0,0-7.35-.76c-3.55,2.22-3.56,7.18-3.33,10.85.11,1.91,3.11,1.93,3,0Z" transform="translate(-468.94 -185.91)"/><path class="cls-2" d="M656.36,482.76a316.85,316.85,0,0,1,40.91,5.87v-2.89l-42.37,7.34c-1.9.33-1.09,3.22.8,2.89l42.37-7.34c1.46-.25,1.4-2.59,0-2.89a322.26,322.26,0,0,0-41.71-6c-1.92-.15-1.91,2.85,0,3Z" transform="translate(-468.94 -185.91)"/><path class="cls-2" d="M683.68,493.6a57.82,57.82,0,0,0-31,6.3,1.52,1.52,0,0,0,.36,2.74A131,131,0,0,0,686,505.1a1.5,1.5,0,0,0,0-3l-24.47-.72v3a70.7,70.7,0,0,1,18.26.78v-2.89a81.45,81.45,0,0,1-18.32.91v3c15.12.39,30.46.83,45,5.61V508.9a154.86,154.86,0,0,1-42.29,1.37v3c14.42-.22,29.56-.45,43,5.6v-2.59c-3.93,1.82-8.38,1.74-12.62,1.54-4.71-.22-9.43-.54-14.14-.91q-14.26-1.14-28.47-3.07l-.4,2.95A152.23,152.23,0,0,1,700.37,523c3.94,1.17,8.12,2.36,11.22,5.19V526c-2.54,3-6.7,3.18-10.33,3.23-4.87.08-9.75,0-14.61-.33s-9.72-.74-14.56-1.37c-4.05-.53-9.07-.76-12.25-3.65l-.66,2.5a94.26,94.26,0,0,1,31.14-2.08,83.52,83.52,0,0,1,15.51,2.92c1.17.35,3.78,1.22,3.25,2.91-.45,1.45-2.81,2-4.08,2.16a65.41,65.41,0,0,1-15.19.34,77.42,77.42,0,0,1-15-2.65c-2.4-.66-4.78-1.45-7.11-2.34a17.65,17.65,0,0,1-3.12-1.36c-.16-.1-.71-.42-.69-.67,0-.41,1.09-.78,1.39-.91a40,40,0,0,1,12.81-3.23,43.9,43.9,0,0,1,28.42,7.24l-.3-2.36c-4.69,4.86-13.16,3.24-19.1,2.47A130.64,130.64,0,0,1,651,518.61l-.36,2.74a69.68,69.68,0,0,1,48,.17,39.23,39.23,0,0,1,6,2.68c1.55.9,3.28,2.2,3.4,4.14l.74-1.3c-4.71,2.07-10,2.4-15,2.07a80.77,80.77,0,0,1-15-2.53,83.63,83.63,0,0,1-27.63-12.5c-.91-.66-.93-1,.09-1.58a13.87,13.87,0,0,1,3.54-1.22,39.79,39.79,0,0,1,7.6-1.09c5.55-.32,11.15-.23,16.71-.05a251.47,251.47,0,0,1,34.3,3.45c7.53,1.29,17,3.27,21,10.55a9.9,9.9,0,0,1,1.27,6.18,6.61,6.61,0,0,1-3.76,4.89,31.68,31.68,0,0,1-6.94,2.27c-2.68.68-5.39,1.24-8.11,1.7-11,1.89-22.28,2.24-33.44,2.81l-34.72,1.77c-20.19,1-41.48,1.1-60.24,9.61a67.1,67.1,0,0,0-6.4,3.35,1.5,1.5,0,0,0,1.51,2.59c19-11.27,42-11.37,63.39-12.46l37-1.88c11.82-.61,23.72-1,35.38-3.19,2.95-.54,5.88-1.21,8.77-2a21.05,21.05,0,0,0,6.64-2.74c4.08-2.9,4.93-8.09,3.14-12.59-3.39-8.49-13-11.7-21.2-13.29a236.38,236.38,0,0,0-35.1-3.91c-6.07-.25-12.18-.37-18.25-.09a49.23,49.23,0,0,0-8.21,1c-2.22.48-5.08,1.08-6.69,2.83-1.75,1.91-.91,4.15,1,5.52a72.07,72.07,0,0,0,6.74,4.19,94.58,94.58,0,0,0,14.81,6.66,90.67,90.67,0,0,0,15.58,3.92,54.36,54.36,0,0,0,16.25.57,28.68,28.68,0,0,0,7.64-2.19,1.45,1.45,0,0,0,.74-1.29c-.25-4-3.7-6.31-7-7.83a69.94,69.94,0,0,0-12.81-4.39,73.17,73.17,0,0,0-26.54-1.32,70.78,70.78,0,0,0-14.84,3.66c-1.07.39-1.64,2.16-.36,2.74a134.66,134.66,0,0,0,24.24,8.22q6.3,1.47,12.73,2.32a62.16,62.16,0,0,0,11.56.82c3.81-.22,7.6-1.26,10.32-4.08a1.52,1.52,0,0,0-.3-2.35,46.56,46.56,0,0,0-29.34-7.7,43.92,43.92,0,0,0-14.92,3.69c-2.08,1-3.8,3.08-2.29,5.33a5.9,5.9,0,0,0,2.54,1.92c1.43.64,2.9,1.19,4.38,1.72A80.48,80.48,0,0,0,703,535.53c3.66-.34,10.53-1.73,9-7-.62-2.14-2.75-3.3-4.7-4a58.31,58.31,0,0,0-8.47-2,97.31,97.31,0,0,0-40.42,1,1.51,1.51,0,0,0-.66,2.51c2.6,2.36,5.93,3.27,9.33,3.82,4.08.65,8.19,1.13,12.31,1.52s8.42.66,12.64.8a109.89,109.89,0,0,0,12,0c3.56-.28,7.25-1.17,9.67-4a1.53,1.53,0,0,0,0-2.13c-2.82-2.57-6.33-4-9.92-5.14-4-1.29-8.1-2.39-12.22-3.33a156.63,156.63,0,0,0-25.4-3.6c-4.88-.29-9.77-.33-14.65-.15-1.59.06-2.14,2.71-.4,2.94q14.83,2,29.76,3.21c4.84.38,9.69.73,14.54.92,4.54.18,9.06-.06,13.24-2a1.5,1.5,0,0,0,0-2.59c-14-6.3-29.48-6.24-44.5-6a1.5,1.5,0,0,0,0,3,157.46,157.46,0,0,0,43.08-1.48c1.57-.27,1.29-2.47,0-2.89-14.73-4.86-30.38-5.32-45.75-5.72-1.94,0-1.92,2.89,0,3a84.34,84.34,0,0,0,19.11-1,1.51,1.51,0,0,0,0-2.89,73.26,73.26,0,0,0-19.05-.89,1.5,1.5,0,0,0,0,3l24.47.72v-3a127.41,127.41,0,0,1-32.14-2.36l.36,2.75a54.9,54.9,0,0,1,29.44-5.89c1.92.15,1.91-2.85,0-3Z" transform="translate(-468.94 -185.91)"/></svg>